<svg xmlns="http://www.w3.org/2000/svg" xmlns:xlink="http://www.w3.org/1999/xlink" width="100px" height="68px" viewBox="497 94 100 68"><title>Duplex IPTV</title><g id="Page-1" stroke="none" stroke-width="1" fill="none" fill-rule="evenodd"><g id="Light" fill="#FFFFFF"><path d="M594.674419,94 C595.958802,94 597,95.0411983 597,96.3255814 L597,159.116279 C597,160.400662 595.958802,161.44186 594.674419,161.44186 L548.162791,161.44186 L548.162791,139.302093 L564.1415,129.7151 C564.443646,129.533812 564.700312,129.286444 564.892481,128.99201 L564.939168,128.917432 C565.588385,127.835404 565.255067,126.437593 564.198777,125.762243 L564.1415,125.726761 L548.162791,116.139535 L548.162791,94 L594.674419,94 Z M545.837209,94 L545.837209,114.744186 L530.289525,105.415575 C529.952189,105.213174 529.569432,105.099892 529.177204,105.085687 L529.093023,105.084164 C527.830409,105.084164 526.802807,106.090366 526.768335,107.344651 L526.767442,107.409745 L526.767442,148.032115 C526.767442,148.453613 526.881995,148.867186 527.098854,149.228617 C527.74807,150.310645 529.138289,150.674335 530.231263,150.060126 L530.289525,150.026285 L545.837209,140.697442 L545.837209,161.44186 L499.325581,161.44186 C498.041198,161.44186 497,160.400662 497,159.116279 L497,96.3255814 C497,95.0411983 498.041198,94 499.325581,94 L545.837209,94 Z M531.418605,109.994174 C531.627197,109.994174 531.831948,110.050285 532.011398,110.156625 L559.963091,126.720591 C560.515563,127.047982 560.698027,127.761252 560.370636,128.313724 C560.271142,128.481621 560.130988,128.621775 559.963091,128.721269 L532.011398,145.285235 C531.458926,145.612626 530.745656,145.430162 530.418266,144.87769 C530.311925,144.69824 530.255814,144.493488 530.255814,144.284896 L530.255814,111.156964 C530.255814,110.514773 530.776413,109.994174 531.418605,109.994174 Z" id="Duplex-IPTV"></path></g></g></svg>