<svg xmlns="http://www.w3.org/2000/svg" xmlns:xlink="http://www.w3.org/1999/xlink" width="100px" height="94px" viewBox="698 687 100 94"><title>Flix IPTV</title><g id="Page-1" stroke="none" stroke-width="1" fill="none" fill-rule="evenodd"><g id="Light" fill="#FFFFFF"><path d="M756.845437,687 C763.225561,695.684431 760.271579,702.603107 747.983493,707.75603 C729.551363,715.485414 711.05954,706.414699 709.846119,726.804546 C708.632697,747.194392 706.382971,764.293215 720.330175,769.55861 C734.277379,774.824006 780.364652,774.20717 784.240808,761.358762 C786.108849,755.166715 789.868146,740.024779 785.586361,722.475387 C782.731837,710.775793 778.983319,704.304692 774.340805,703.062086 C787.63554,704.523736 795.165806,711.514015 796.931603,724.032923 C798.6974,736.55183 798.274376,749.525207 795.662532,762.953055 C794.029686,771.918405 787.622894,777.07839 776.442155,778.433009 C759.671046,780.464937 705.945058,786.202771 701.381601,766.218717 C696.818143,746.234662 692.942145,703.554405 717.50923,703.554405 C742.076315,703.554405 752.614505,696.075511 756.845437,687 Z M735.338281,730.404472 L735.338281,736.39431 L725.687987,736.39431 L725.687987,739.05646 L733.341668,739.05646 L733.341668,745.379066 L725.687987,745.379066 L725.687987,753.365516 L720.030919,753.365516 L720.030919,730.404472 L735.338281,730.404472 Z M752.975024,737.059847 L752.975024,753.365516 L746.652418,753.365516 L746.652418,737.059847 L752.975024,737.059847 Z M759.963168,737.059847 L761.793396,740.049109 L763.623624,737.059847 L769.94623,737.059847 L764.954699,745.212681 L769.94623,753.365516 L763.623624,753.365516 L761.793396,750.376254 L759.963168,753.365516 L753.640562,753.365516 L758.632093,745.212681 L753.640562,737.059847 L759.963168,737.059847 Z M741.993656,729.738935 L741.993656,745.711834 C741.993656,746.63075 742.738584,747.375678 743.657499,747.375678 L745.321343,747.375678 L746.319649,753.365516 L741.660887,753.365516 C738.536574,753.365516 736.003818,750.83276 736.003818,747.708447 L736.003818,731.402779 L741.993656,729.738935 Z M768.545287,731.442711 L768.545287,735.728772 L767.354923,735.728772 L767.354923,731.442711 L768.545287,731.442711 Z M771.581151,731.441125 C772.060806,731.441125 772.42006,731.555189 772.658913,731.783318 C772.897765,732.011446 773.017192,732.336091 773.017192,732.757251 C773.017192,733.190111 772.887041,733.528404 772.626741,733.772131 C772.36644,734.015858 771.969165,734.137722 771.434915,734.137722 L770.709583,734.137722 L770.709583,735.728772 L769.378833,735.728772 L769.378833,731.441125 L771.581151,731.441125 Z M777.436451,731.441125 L777.436451,732.499876 L776.085228,732.499876 L776.085228,735.728772 L774.760328,735.728772 L774.760328,732.499876 L773.409105,732.499876 L773.409105,731.441125 L777.436451,731.441125 Z M778.998255,731.441125 L779.963414,734.52671 L780.91395,731.441125 L782.259323,731.441125 L780.668273,735.728772 L779.232233,735.728772 L777.611935,731.441125 L778.998255,731.441125 Z M749.813721,728.740629 C751.559661,728.740629 752.975024,730.155992 752.975024,731.901932 C752.975024,733.647871 751.559661,735.063235 749.813721,735.063235 C748.067782,735.063235 746.652418,733.647871 746.652418,731.901932 C746.652418,730.155992 748.067782,728.740629 749.813721,728.740629 Z M771.086873,732.312693 L770.709583,732.312693 L770.709583,733.269078 L771.034228,733.269078 C771.289654,733.269078 771.469037,733.22472 771.572377,733.136003 C771.675718,733.047287 771.727388,732.93371 771.727388,732.795273 C771.727388,732.660735 771.682542,732.546671 771.59285,732.45308 C771.503159,732.359489 771.3345,732.312693 771.086873,732.312693 Z M768.545287,729.777281 L768.545287,730.920199 L767.354923,730.920199 L767.354923,729.777281 L768.545287,729.777281 Z" id="Flix-IPTV"></path></g></g></svg>