<svg xmlns="http://www.w3.org/2000/svg" xmlns:xlink="http://www.w3.org/1999/xlink" width="100px" height="100px" viewBox="298 78 100 100"><title>GSE Smart IPTV</title><g id="Page-1" stroke="none" stroke-width="1" fill="none" fill-rule="evenodd"><g id="Light" fill="#FFFFFF" fill-rule="nonzero"><path d="M348,78 C375.614237,78 398,100.385763 398,128 C398,155.614237 375.614237,178 348,178 C320.385763,178 298,155.614237 298,128 C298,100.385763 320.385763,78 348,78 Z M348,84.25 C323.837542,84.25 304.25,103.837542 304.25,128 C304.25,152.162458 323.837542,171.75 348,171.75 C372.162458,171.75 391.75,152.162458 391.75,128 C391.75,103.837542 372.162458,84.25 348,84.25 Z M348,86.25 C371.057888,86.25 389.75,104.942112 389.75,128 C389.75,151.057888 371.057888,169.75 348,169.75 C324.942112,169.75 306.25,151.057888 306.25,128 C306.25,104.942112 324.942112,86.25 348,86.25 Z M318.833333,111.125 L312.583333,111.125 L312.583333,145.083333 L318.833333,145.083333 L318.833333,111.125 Z M360.708333,111.125 L341.541667,111.125 L341.541667,117.375 L347.999667,117.374 L348,145.083333 L354.25,145.083333 L354.249667,117.374 L360.708333,117.375 L360.708333,111.125 Z M369.041667,111.125 L362.791667,111.125 L369.041667,145.083333 L377.375,145.083333 L383.625,111.125 L377.375,111.125 L373.208667,133.763 L369.041667,111.125 Z M328.833333,111.125 L320.916667,111.125 L320.916667,145.083333 L327.166667,145.083333 L327.166667,132.375 L328.833333,132.375 C334.701359,132.375 339.458333,127.618025 339.458333,121.75 C339.458333,115.881975 334.701359,111.125 328.833333,111.125 Z M327.791667,116.333333 C330.783209,116.333333 333.208333,118.758458 333.208333,121.75 C333.208333,124.668578 330.900065,127.048031 328.009522,127.162366 L327.791667,127.166667 L327.166667,127.166667 L327.166667,116.333333 L327.791667,116.333333 Z" id="GSE-Smart-IPTV"></path></g></g></svg>