<svg xmlns="http://www.w3.org/2000/svg" xmlns:xlink="http://www.w3.org/1999/xlink" width="86px" height="96px" viewBox="98 80 86 96"><title>Home IPTV</title><g id="Page-1" stroke="none" stroke-width="1" fill="none" fill-rule="evenodd"><g id="Light" fill="#FFFFFF"><path d="M104,111.053831 C105.143911,111.053831 106.263985,111.380833 107.228213,111.996297 L128.51089,125.580985 C133.690994,128.887434 136.826252,134.608173 136.826252,140.753585 L136.826252,169.506208 C136.826252,172.819917 134.13996,175.506208 130.826252,175.506208 C129.68234,175.506208 128.562267,175.179207 127.598039,174.563742 L106.315362,160.979054 C101.135258,157.672605 98,151.951866 98,145.806455 L98,117.053831 C98,113.740122 100.686292,111.053831 104,111.053831 Z M177.913408,111.053831 C181.151805,111.053831 183.79098,113.619406 183.909269,116.828892 L183.913408,117.053831 L183.913408,145.806455 C183.913408,151.823837 180.907425,157.434057 175.91913,160.769276 L175.598046,160.979054 L154.315369,174.563742 C153.351141,175.179207 152.231067,175.506208 151.087156,175.506208 C147.848759,175.506208 145.209584,172.940634 145.091295,169.731147 L145.087156,169.506208 L145.087156,140.753585 C145.087156,134.736203 148.093139,129.125983 153.081434,125.790764 L153.402518,125.580985 L174.685195,111.996297 C175.649423,111.380833 176.769497,111.053831 177.913408,111.053831 Z M164.087237,134.193025 L147.565428,144.932201 L147.565428,151.540924 L153.347428,147.781849 L153.348061,163.932281 L159.130694,160.627919 L159.130428,144.022849 L164.087237,140.801748 L164.087237,134.193025 Z M114.521809,130.062572 L114.521809,155.671377 L121.130533,159.801829 L121.129724,150.548939 L123.959951,152.247267 C124.686867,152.683416 125.518651,152.913807 126.366374,152.913807 C128.87779,152.913807 130.926904,150.934455 131.038805,148.45066 L131.043618,148.236562 L131.043618,147.902323 C131.043618,143.099008 128.582048,138.639701 124.538092,136.07721 L124.246559,135.897422 L114.521809,130.062572 Z M104.608724,124.279939 L104.608724,149.888743 L111.217447,154.019196 L111.217447,128.410391 L104.608724,124.279939 Z M182.261227,123.453849 L176.478594,126.75821 L173.174232,142.453929 L169.86987,130.888663 L164.087237,134.193025 L169.86987,153.193105 L176.478594,149.062653 L182.261227,123.453849 Z M121.129724,140.525939 L123.925086,142.38942 L124.087511,142.505677 C124.771667,143.030624 125.19707,143.825497 125.254351,144.685937 L125.260985,144.885571 L125.260985,145.758291 L125.254137,145.893901 C125.186216,146.562711 124.621385,147.084622 123.934655,147.084622 C123.725174,147.084622 123.519443,147.035016 123.333979,146.940807 L123.198939,146.861865 L121.129724,145.481939 L121.129724,140.525939 Z M150.941307,83.0230947 L170.642322,96.1571044 C173.399494,97.9952191 174.144537,101.720435 172.306423,104.477607 C171.867013,105.136721 171.301436,105.702299 170.642322,106.141708 L150.941307,119.275718 C144.895118,123.306511 137.01829,123.306511 130.9721,119.275718 L111.271086,106.141708 C108.513914,104.303593 107.768871,100.578377 109.606985,97.821205 C110.046394,97.1620912 110.611972,96.5965135 111.271086,96.1571044 L130.9721,83.0230947 C137.01829,78.9923018 144.895118,78.9923018 150.941307,83.0230947 Z" id="Home-IPTV"></path></g></g></svg>