<svg xmlns="http://www.w3.org/2000/svg" xmlns:xlink="http://www.w3.org/1999/xlink" width="100px" height="43px" viewBox="298 306 100 43"><title>iPlayTV</title><g id="Page-1" stroke="none" stroke-width="1" fill="none" fill-rule="evenodd"><g id="Light" fill="#FFFFFF"><path d="M348.142657,324.665641 L348.449971,324.85153 C350.946313,326.349336 351.755788,329.587233 350.257982,332.083575 C349.812829,332.825497 349.191892,333.446434 348.449971,333.891587 L324.432479,348.302082 C321.936136,349.799887 318.698239,348.990413 317.200433,346.49407 C316.976612,346.121035 316.800871,345.723494 316.675832,345.31091 C318.173388,346.075278 320.002018,346.1097 321.574098,345.265888 L321.796872,345.139354 L345.814364,330.728859 C346.556285,330.283706 347.177222,329.662768 347.622375,328.920847 C348.422122,327.587936 348.564068,326.04361 348.142657,324.665641 Z M317.503491,306 C318.458867,306 319.39628,306.259649 320.215508,306.751185 L323.033496,308.440111 C322.447178,308.221691 321.824175,308.108486 321.193341,308.108486 C318.35491,308.108486 316.040471,310.351963 315.926524,313.16242 L315.922127,313.379699 L315.922127,342.200689 C315.922127,343.156065 316.181775,344.093478 316.673312,344.912706 C316.761315,345.059377 316.855324,345.200225 316.954838,345.335124 C315.364709,345.167522 313.869572,344.281071 312.983462,342.804221 C312.491926,341.984993 312.232277,341.047579 312.232277,340.092204 L312.232277,311.271214 C312.232277,308.360003 314.59228,306 317.503491,306 Z M321.529016,308.581364 C322.373818,308.581364 323.202737,308.814628 323.927149,309.256218 L345.164896,322.202388 C347.372316,323.547994 348.088103,326.456872 346.763651,328.699548 C346.37002,329.366079 345.820949,329.92392 345.164896,330.323838 L323.927149,343.270009 C321.719729,344.615615 318.856581,343.888396 317.532128,341.645719 C317.097481,340.909737 316.867884,340.067579 316.867884,339.209284 L316.867884,313.316943 C316.867884,310.701555 318.954744,308.581364 321.529016,308.581364 Z M362.045247,309.340946 C364.519777,309.340946 366.525779,311.346948 366.525779,313.821478 L366.525,317.773946 L369.952068,317.774888 C372.426597,317.774888 374.4326,319.78089 374.4326,322.25542 C374.4326,324.729949 372.426597,326.735951 369.952068,326.735951 L366.525,326.735946 L366.525779,329.635119 C366.525779,331.818527 368.295781,333.588529 370.479189,333.588529 C372.662598,333.588529 374.4326,335.358531 374.4326,337.54194 L374.4326,338.069061 C374.4326,340.54359 372.426597,342.549593 369.952068,342.549593 L365.998658,342.549593 C361.34072,342.549593 357.564716,338.773588 357.564716,334.115651 L357.564716,313.821478 C357.564716,311.346948 359.570718,309.340946 362.045247,309.340946 Z M394.726773,317.774888 C396.534526,317.774888 398,319.240362 398,321.048115 C398,321.385854 397.947729,321.721558 397.845043,322.043308 L392.662745,338.281173 C391.851305,340.823687 389.488812,342.549593 386.819952,342.549593 C384.151092,342.549593 381.7886,340.823687 380.977159,338.281173 L375.794861,322.043308 C375.245232,320.321135 376.195766,318.479475 377.917939,317.929845 C378.239689,317.827159 378.575393,317.774888 378.913131,317.774888 C381.541206,317.774888 383.826859,319.575982 384.441432,322.131188 L385.106808,324.897616 C385.334372,325.843759 386.285851,326.426283 387.231994,326.198718 C387.875691,326.043897 388.378276,325.541313 388.533097,324.897616 L389.198472,322.131188 C389.813046,319.575982 392.098698,317.774888 394.726773,317.774888 Z M302.480532,318.302009 C304.955061,318.302009 306.961063,320.308012 306.961063,322.782541 L306.961063,338.069061 C306.961063,340.54359 304.955061,342.549593 302.480532,342.549593 C300.006002,342.549593 298,340.54359 298,338.069061 L298,322.782541 C298,320.308012 300.006002,318.302009 302.480532,318.302009 Z M302.480532,309.340946 C304.955061,309.340946 306.961063,311.346948 306.961063,313.821478 C306.961063,316.296007 304.955061,318.302009 302.480532,318.302009 C300.006002,318.302009 298,316.296007 298,313.821478 C298,311.346948 300.006002,309.340946 302.480532,309.340946 Z" id="iPlayTV"></path></g></g></svg>