<svg xmlns="http://www.w3.org/2000/svg" xmlns:xlink="http://www.w3.org/1999/xlink" width="100px" height="99px" viewBox="498 685 100 99"><title>IPTVextreme</title><g id="Page-1" stroke="none" stroke-width="1" fill="none" fill-rule="evenodd"><g id="Light" fill="#FFFFFF"><path d="M569.843434,685 C572.144621,685 574.010101,686.86548 574.010101,689.166667 C574.010101,691.467853 572.144621,693.333333 569.843434,693.333333 C568.941265,693.333333 568.106063,693.04661 567.423983,692.559317 L553.363106,706.463881 C554.432481,707.818434 555.070707,709.529129 555.070707,711.388889 C555.070707,711.431764 555.069192,711.474221 555.066191,711.516259 L587.89899,711.515152 C593.477624,711.515152 598,716.037528 598,721.616162 L598,773.888889 C598,779.467523 593.477624,783.989899 587.89899,783.989899 L508.10101,783.989899 C502.522376,783.989899 498,779.467523 498,773.888889 L498,721.616162 C498,716.037528 502.522376,711.515152 508.10101,711.515152 L539.167,711.515 L539.161616,711.388889 C539.161616,709.46509 539.844552,707.700799 540.981211,706.325228 L527.437499,692.932234 C526.896207,693.189422 526.290667,693.333333 525.651515,693.333333 C523.350329,693.333333 521.484848,691.467853 521.484848,689.166667 C521.484848,686.86548 523.350329,685 525.651515,685 C527.952702,685 529.818182,686.86548 529.818182,689.166667 C529.818182,690.022638 529.560071,690.818325 529.117435,691.480142 L543.978169,704.07724 C544.940946,703.663492 546.001794,703.434343 547.116162,703.434343 C548.294694,703.434343 549.413364,703.69064 550.419477,704.150537 L566.053056,690.899464 C565.811442,690.371809 565.676768,689.784965 565.676768,689.166667 C565.676768,686.86548 567.542248,685 569.843434,685 Z M518.20202,716.565657 C516.977459,716.565657 515.786829,716.710928 514.646422,716.985177 L514.646422,778.519873 C515.688185,778.7704 516.771858,778.913297 517.885022,778.936144 L518.20202,778.939394 L523.747475,778.939394 L523.747475,716.565657 L518.20202,716.565657 Z M585.121212,769.343434 C583.16869,769.343434 581.585859,770.926266 581.585859,772.878788 C581.585859,774.83131 583.16869,776.414141 585.121212,776.414141 C587.073734,776.414141 588.656566,774.83131 588.656566,772.878788 C588.656566,770.926266 587.073734,769.343434 585.121212,769.343434 Z M503.053755,731.400174 L503.050505,731.717172 L503.050505,763.787879 C503.050505,766.141513 503.587163,768.369804 504.54479,770.357063 L504.54479,725.147988 C503.63026,727.045811 503.099661,729.163461 503.053755,731.400174 Z M571.25319,725.147988 L571.25319,770.357063 C572.167719,768.459239 572.698318,766.34159 572.744224,764.104877 L572.747475,763.787879 L572.747475,731.717172 C572.747475,729.363537 572.210817,727.135246 571.25319,725.147988 Z M585.121212,759.242424 C583.16869,759.242424 581.585859,760.825256 581.585859,762.777778 C581.585859,764.7303 583.16869,766.313131 585.121212,766.313131 C587.073734,766.313131 588.656566,764.7303 588.656566,762.777778 C588.656566,760.825256 587.073734,759.242424 585.121212,759.242424 Z M557.59596,778.939394 C558.82052,778.939394 560.011151,778.794122 561.151558,778.519873 L561.151558,716.985177 C560.011151,716.710928 558.82052,716.565657 557.59596,716.565657 L553.050505,716.565657 L553.050505,778.939394 L557.59596,778.939394 Z M542.949495,778.939394 L542.949495,716.565657 L533.848485,716.565657 L533.848485,778.939394 L542.949495,778.939394 Z" id="IPTVextreme"></path></g></g></svg>