<svg xmlns="http://www.w3.org/2000/svg" xmlns:xlink="http://www.w3.org/1999/xlink" width="100px" height="100px" viewBox="899 278 100 100"><title>Kodi</title><g id="Page-1" stroke="none" stroke-width="1" fill="none" fill-rule="evenodd"><g id="Light" fill="#FFFFFF"><path d="M950.734335,342.613806 L966.437266,358.294662 C967.342218,359.198341 967.343309,360.663159 966.439704,361.568182 L950.713467,377.319089 C949.825357,378.208592 948.393374,378.226867 947.482937,377.372333 L947.43046,377.321527 L947.43046,377.321527 L931.903193,361.816088 C931.005375,360.919532 930.996193,359.468781 931.882591,358.560965 L947.433164,342.63464 C948.311285,341.735302 949.742974,341.70108 950.662898,342.545421 L950.734335,342.613806 L950.734335,342.613806 Z M982.674014,310.682817 L998.323411,326.364461 C999.225687,327.268596 999.225507,328.731229 998.323008,329.635142 L980.700627,347.285135 C979.812516,348.174637 978.380534,348.192911 977.470097,347.338376 L977.417621,347.287572 L977.417621,347.287572 L961.71494,331.606965 C960.809049,330.702329 960.809045,329.23564 961.714931,328.330998 L979.390596,310.679986 C980.280025,309.791798 981.712033,309.775642 982.621201,310.631522 L982.674014,310.682817 L982.674014,310.682817 Z M915.205378,316.457262 L915.205378,339.549337 C915.205378,340.828678 914.166807,341.865788 912.885665,341.865788 C912.270439,341.865788 911.680411,341.621734 911.24538,341.187315 L899.679787,329.637981 C898.789951,328.7502 898.773772,327.320212 899.630862,326.412327 L899.679633,326.362279 L899.679633,326.362279 L911.24579,314.818873 C912.151921,313.914469 913.620682,313.914836 914.52636,314.819692 C914.961139,315.254078 915.205378,315.843101 915.205378,316.457262 Z M950.739016,278.681332 L968.539212,296.518602 C969.431727,297.412977 969.442578,298.856371 968.563609,299.764025 L934.270764,335.176023 C933.380167,336.095685 931.911612,336.120262 930.990655,335.230916 C930.538705,334.794479 930.283511,334.193544 930.283511,333.565721 L930.283511,296.777393 C930.283511,296.162824 930.528074,295.573444 930.963364,295.138991 L947.456013,278.678049 C948.345677,277.790096 949.777689,277.774318 950.686631,278.630438 L950.739016,278.681332 L950.739016,278.681332 Z" id="Kodi"></path></g></g></svg>