<svg xmlns="http://www.w3.org/2000/svg" xmlns:xlink="http://www.w3.org/1999/xlink" width="100px" height="19px" viewBox="498 522 100 19"><title>MAG</title><g id="Page-1" stroke="none" stroke-width="1" fill="none" fill-rule="evenodd"><g id="Light" fill="#FFFFFF" fill-rule="nonzero"><path d="M548.737568,522 C550.664763,522 552.106194,522.174479 553.061861,522.523436 C554.017527,522.872393 554.810611,523.413673 555.441113,524.147276 C556.071616,524.880879 556.545483,525.81077 556.862717,526.93695 L551.664049,527.864858 C551.449917,527.206598 551.087081,526.70299 550.575541,526.354033 C550.064002,526.005076 549.41169,525.830597 548.618606,525.830597 C547.43691,525.830597 546.495123,526.241018 545.793243,527.061861 C545.091363,527.882703 544.740424,529.181378 544.740424,530.957887 C544.740424,532.845428 545.095329,534.193671 545.805139,535.002617 C546.51495,535.811563 547.504322,536.216036 548.773257,536.216036 C549.376001,536.216036 549.950987,536.128797 550.498216,535.954318 C551.045444,535.77984 551.67198,535.482433 552.377825,535.062099 L552.377825,533.420414 L548.773257,533.420414 L548.773257,529.792053 L557.100642,529.792053 L557.100642,537.227219 C555.506543,538.313744 554.096836,539.053295 552.87152,539.445872 C551.646205,539.838449 550.192878,540.034737 548.511539,540.034737 C546.441589,540.034737 544.754302,539.681815 543.449679,538.97597 C542.145055,538.270125 541.133873,537.219288 540.416131,535.823459 C539.69839,534.427631 539.339519,532.825601 539.339519,531.017369 C539.339519,529.113966 539.732096,527.458403 540.51725,526.050678 C541.302403,524.642953 542.452375,523.574272 543.967166,522.844635 C545.148862,522.281545 546.738996,522 548.737568,522 Z M583.819653,522.535332 L583.819653,524.581489 L576.860338,524.581489 L575.920533,529.268618 C576.967404,528.53898 578.065826,528.174161 579.215798,528.174161 C580.73852,528.174161 582.023317,528.701562 583.070188,529.756365 C584.117059,530.811167 584.640495,532.167341 584.640495,533.824887 C584.640495,535.403125 584.180506,536.76723 583.260528,537.917202 C582.142279,539.328892 580.615592,540.034737 578.680466,540.034737 C577.094298,540.034737 575.799588,539.59061 574.796336,538.702355 C573.793084,537.814101 573.220081,536.636371 573.077326,535.169165 L575.32572,534.978825 C575.492267,536.073281 575.878896,536.896106 576.485606,537.4473 C577.092315,537.998493 577.823935,538.27409 578.680466,538.27409 C579.711476,538.27409 580.583869,537.885479 581.297645,537.108256 C582.01142,536.331033 582.368308,535.300024 582.368308,534.015227 C582.368308,532.793877 582.025299,531.83028 581.339281,531.124435 C580.653264,530.41859 579.755096,530.065667 578.644778,530.065667 C577.954794,530.065667 577.332223,530.222302 576.777064,530.53557 C576.221905,530.848838 575.785709,531.255294 575.468475,531.754937 L573.458006,531.493219 L575.147276,522.535332 L583.819653,522.535332 Z M592.313586,522.226029 C593.249425,522.226029 594.070267,522.414387 594.776112,522.791102 C595.481957,523.167817 596.064874,523.711079 596.524863,524.42089 C596.984852,525.1307 597.345705,525.995162 597.607423,527.014276 C597.869141,528.033389 598,529.407407 598,531.136331 C598,533.182489 597.789833,534.834087 597.369498,536.091125 C596.949163,537.348164 596.320644,538.319692 595.48394,539.00571 C594.647236,539.691728 593.590451,540.034737 592.313586,540.034737 C590.632247,540.034737 589.311761,539.431993 588.352129,538.226505 C587.202157,536.775161 586.627171,534.411769 586.627171,531.136331 C586.627171,529.074312 586.839321,527.414783 587.263621,526.157744 C587.687921,524.900706 588.318423,523.93116 589.155127,523.249108 C589.991831,522.567055 591.044651,522.226029 592.313586,522.226029 Z M505.090174,522.297407 L507.826315,532.908875 L510.550559,522.297407 L517.61694,522.297407 L517.61694,539.73733 L513.215322,539.73733 L513.215322,526.437307 L509.801094,539.73733 L505.815846,539.73733 L502.413514,526.437307 L502.413514,539.73733 L498,539.73733 L498,522.297407 L505.090174,522.297407 Z M531.72591,522.297407 L538.280752,539.73733 L532.641922,539.73733 L531.785391,536.858434 L525.646919,536.858434 L524.802284,539.73733 L519.294314,539.73733 L525.849155,522.297407 L531.72591,522.297407 Z M565.320961,522.226029 C566.994369,522.226029 568.31882,522.689983 569.294314,523.617892 C570.269807,524.545801 570.757554,525.695773 570.757554,527.067809 C570.757554,527.765723 570.614799,528.451741 570.329289,529.125862 C570.043778,529.799984 569.56991,530.509795 568.907685,531.255294 C568.24546,532.000793 567.145055,533.023872 565.606472,534.32453 C564.321675,535.403125 563.496867,536.134745 563.132049,536.519391 C562.76723,536.904037 562.465858,537.290665 562.227932,537.679277 L570.781347,537.679277 L570.781347,539.73733 L559.253866,539.73733 C559.238005,539.221826 559.321278,538.726148 559.503688,538.250297 C559.797129,537.465144 560.267031,536.691887 560.913395,535.930526 C561.559759,535.169165 562.493616,534.288841 563.714966,533.289555 C565.610437,531.73511 566.891268,530.503846 567.557459,529.595765 C568.22365,528.687683 568.556745,527.82917 568.556745,527.020224 C568.556745,526.171623 568.25339,525.455865 567.646681,524.872948 C567.039971,524.290031 566.24887,523.998572 565.273376,523.998572 C564.242367,523.998572 563.417559,524.307875 562.798953,524.926481 C562.180347,525.545087 561.867079,526.401618 561.859148,527.496074 L559.658339,527.270045 C559.809025,525.628361 560.376081,524.37727 561.359505,523.516774 C562.34293,522.656277 563.663415,522.226029 565.320961,522.226029 Z M592.289793,523.998572 C591.306368,523.998572 590.521215,524.414942 589.934333,525.24768 C589.196764,526.310413 588.82798,528.273297 588.82798,531.136331 C588.82798,533.999366 589.163058,535.904751 589.833214,536.852486 C590.503371,537.800222 591.330161,538.27409 592.313586,538.27409 C593.29701,538.27409 594.1238,537.798239 594.793957,536.846538 C595.464113,535.894837 595.799191,533.991435 595.799191,531.136331 C595.799191,528.265366 595.464113,526.357998 594.793957,525.414228 C594.1238,524.470458 593.289079,523.998572 592.289793,523.998572 Z M528.728051,526.817987 L526.812753,533.087319 L530.655246,533.087319 L528.728051,526.817987 Z" id="MAG"></path></g></g></svg>