<svg xmlns="http://www.w3.org/2000/svg" xmlns:xlink="http://www.w3.org/1999/xlink" width="95px" height="100px" viewBox="902 481 95 100"><title>MyIPTV Player</title><g id="Page-1" stroke="none" stroke-width="1" fill="none" fill-rule="evenodd"><g id="Light" fill="#FFFFFF" fill-rule="nonzero"><path d="M915.422139,495.585621 C916.710986,493.623576 919.476705,493.340225 921.136629,495.000165 L921.136629,495.000165 L941.198997,515.062342 C946.169003,511.152216 953.39016,511.488531 957.972917,516.071288 C962.555504,520.653875 962.891964,527.874668 958.982296,532.844657 L979.043737,552.907815 C980.703662,554.567755 980.420285,557.333471 978.458228,558.622301 C971.06089,563.481439 962.63659,565.937042 954.215415,566.063937 L954.215053,577.296296 C954.215053,579.279811 952.655823,580.899147 950.696202,580.995467 L950.51135,581 L905.708482,581 C903.013796,581 901.241127,578.224531 902.32128,575.797695 L902.395789,575.63995 L916.606347,547.218097 C905.635434,532.064688 904.994198,511.460332 915.422139,495.585621 Z M921.860133,553.273423 L911.700149,573.592593 L946.807556,573.592593 L946.807396,565.572789 C937.669925,564.215562 928.900984,560.082853 921.860133,553.273423 Z M919.317742,503.657407 L919.242036,503.810813 C912.210543,518.179063 914.868143,535.814873 926.548738,547.495468 C938.229248,559.175978 955.864897,561.833631 970.233103,554.80231 L970.233103,554.80231 L970.38626,554.725926 L919.317742,503.657407 Z M946.530125,520.393777 L953.650739,527.513502 C954.720261,525.523179 954.415044,522.989071 952.735089,521.309116 C951.054971,519.628998 948.520535,519.323885 946.530125,520.393777 Z M953.498207,481 C976.988455,481 996.031063,500.042608 996.031063,523.532855 C996.031063,525.578355 994.372858,527.236559 992.327359,527.236559 C990.28186,527.236559 988.623656,525.578355 988.623656,523.532855 C988.623656,504.133606 972.897457,488.407407 953.498207,488.407407 C951.452708,488.407407 949.794504,486.749203 949.794504,484.703704 C949.794504,482.658205 951.452708,481 953.498207,481 Z M954.991636,498.921147 C967.75951,498.921147 978.109916,509.271553 978.109916,522.039427 C978.109916,524.084926 976.451711,525.74313 974.406212,525.74313 C972.360713,525.74313 970.702509,524.084926 970.702509,522.039427 C970.702509,513.362551 963.668511,506.328554 954.991636,506.328554 C952.946137,506.328554 951.287933,504.67035 951.287933,502.624851 C951.287933,500.579352 952.946137,498.921147 954.991636,498.921147 Z" id="MyIPTV-Player"></path></g></g></svg>