<svg xmlns="http://www.w3.org/2000/svg" xmlns:xlink="http://www.w3.org/1999/xlink" width="100px" height="89px" viewBox="899 84 100 89"><title>MyTVOnline</title><g id="Page-1" stroke="none" stroke-width="1" fill="none" fill-rule="evenodd"><g id="Light" fill="#FFFFFF"><path d="M899,115.797235 L942.317972,150.359447 L942.317972,172.479263 L899,137.917051 L899,115.797235 Z M999,115.797235 L999,137.917051 L955.682028,172.479263 L955.682028,150.359447 L999,115.797235 Z M973.115207,95.0599078 L973.115207,117.179724 L949.230415,137.917051 L949.230415,115.797235 L973.115207,95.0599078 Z M924.345622,95.0599078 L948.230415,115.797235 L948.230415,137.917051 L924.345622,117.179724 L924.345622,95.0599078 Z M974.115207,95.0599078 L998,114.797235 L985,125.917051 L974.115207,117.179724 L974.115207,95.0599078 Z M923,95.0599078 L923,117.179724 L913.115207,125.917051 L900.115207,114.797235 L923,95.0599078 Z M961.672811,84 L970.889401,92.0645161 L961.672811,100.129032 L961.672811,84 Z M960.672811,84 L960.672811,100.129032 L951.456221,92.0645161 L960.672811,84 Z" id="MyTVOnline"></path></g></g></svg>