<svg xmlns="http://www.w3.org/2000/svg" xmlns:xlink="http://www.w3.org/1999/xlink" width="100px" height="19px" viewBox="91 319 100 19"><title>Net IPTV</title><g id="Page-1" stroke="none" stroke-width="1" fill="none" fill-rule="evenodd"><g id="Light" fill="#FFFFFF"><path d="M94.6842105,319 L101.315,332.115 L101.315789,319 L104.578947,319 L104.578947,337.736842 L100.894737,337.736842 L94.263,324.621 L94.2631579,337.736842 L91,337.736842 L91,319 L94.6842105,319 Z M117.315789,319 L117.315789,322.263158 L111,322.263 L111,326.789 L117.315789,326.789474 L117.315789,330.052632 L111,330.052 L111,334.473 L117.315789,334.473684 L117.315789,337.736842 L107.736842,337.736842 L107.736842,319 L117.315789,319 Z M133.210526,319 L133.210526,322.263158 L128.473,322.263 L128.473684,337.736842 L125.210526,337.736842 L125.21,322.263 L120.473684,322.263158 L120.473684,319 L133.210526,319 Z M142.789474,319 L142.789474,337.736842 L139.526316,337.736842 L139.526316,319 L142.789474,319 Z M151.789474,319 C155.015979,319 157.631579,321.6156 157.631579,324.842105 C157.631579,328.068611 155.015979,330.684211 151.789474,330.684211 L149.21,330.684 L149.210526,337.736842 L145.947368,337.736842 L145.947368,319 L151.789474,319 Z M173.526316,319 L173.526316,322.263158 L168.789,322.263 L168.789474,337.736842 L165.526316,337.736842 L165.526,322.263 L160.789474,322.263158 L160.789474,319 L173.526316,319 Z M191,319 L185.210526,337.736842 L180.894737,337.736842 L176.684211,319 L191,319 Z M186.728,322.263 L180.68,322.263 L183.226,333.595 L186.728,322.263 Z M185.789474,323.263158 L183.210526,331.631579 L181.684211,323.263158 L185.789474,323.263158 Z M151.789474,322.157895 L149.21,322.157 L149.21,327.526 L151.789474,327.526316 C153.271922,327.526316 154.473684,326.324554 154.473684,324.842105 C154.473684,323.359657 153.271922,322.157895 151.789474,322.157895 Z" id="Net-IPTV"></path></g></g></svg>