<svg xmlns="http://www.w3.org/2000/svg" xmlns:xlink="http://www.w3.org/1999/xlink" width="100px" height="86px" viewBox="91 890 100 86"><title>Royal IPTV</title><g id="Page-1" stroke="none" stroke-width="1" fill="none" fill-rule="evenodd"><g id="Light" fill="#FFFFFF" fill-rule="nonzero"><path d="M184.3608,964.169119 L184.3608,964.388856 L182.854032,964.388856 L186.103002,972.895821 L189.414754,964.388856 L188.002158,964.388856 L188.002158,964.169119 L191,964.169119 L191,964.388856 L189.650186,964.388856 L185.224053,975.768099 L184.768884,975.768099 L180.436924,964.388856 L179.118501,964.388856 L179.118501,964.169119 L184.3608,964.169119 Z M156.065725,964.169119 L156.065725,964.388856 L154.621738,964.388856 L154.621738,975.124583 L156.065725,975.124583 L156.065725,975.34432 L150.901903,975.34432 L150.901903,975.124583 L152.34589,975.124583 L152.34589,964.388856 L150.901903,964.388856 L150.901903,964.169119 L156.065725,964.169119 Z M162.347852,964.122033 C162.818717,964.122033 163.326205,964.161271 163.870316,964.239749 C164.414427,964.318226 164.916683,964.464718 165.377085,964.679223 C165.837486,964.893728 166.222026,965.191943 166.530704,965.573867 C166.839383,965.955791 166.993722,966.450199 166.993722,967.057092 C166.993722,967.465176 166.894317,967.849716 166.695507,968.210712 C166.496697,968.571709 166.193251,968.885619 165.785168,969.152443 C165.377085,969.419266 164.864365,969.631156 164.247008,969.788111 C163.717845,969.922644 163.107963,969.99952 162.41736,970.018739 L162.065333,970.023543 L161.421817,970.023543 L161.421817,975.124583 L162.865803,975.124583 L162.865803,975.34432 L157.701982,975.34432 L157.701982,975.124583 L159.145968,975.124583 L159.145968,964.388856 L157.701982,964.388856 L157.701982,964.169119 L159.145968,964.169119 C159.679615,964.169119 160.213263,964.161271 160.74691,964.145576 C161.280557,964.12988 161.814204,964.122033 162.347852,964.122033 Z M178.282715,964.169119 L178.282715,967.041397 L178.078674,967.041397 C177.921719,966.50775 177.749068,966.068275 177.560722,965.722974 C177.372376,965.377673 177.157871,965.108234 176.917206,964.914656 C176.676542,964.721078 176.404486,964.58505 176.10104,964.506572 C175.858283,964.44379 175.588738,964.406121 175.292407,964.393565 L175.065136,964.388856 L174.500098,964.388856 L174.500098,975.124583 L175.944085,975.124583 L175.944085,975.34432 L170.780263,975.34432 L170.780263,975.124583 L172.22425,975.124583 L172.22425,964.388856 L171.659211,964.388856 C171.272055,964.388856 170.926754,964.428095 170.623308,964.506572 C170.319861,964.58505 170.047806,964.721078 169.807141,964.914656 C169.566477,965.108234 169.351972,965.377673 169.163626,965.722974 C169.006671,966.010725 168.860615,966.363874 168.725459,966.782421 L168.645674,967.041397 L168.441632,967.041397 L168.441632,964.169119 L178.282715,964.169119 Z M146.856386,913.543261 L154.213655,916.486168 L102.712772,916.486168 L102.712772,956.705905 L169.418678,956.705905 L169.418678,921.391014 L172.85207,922.459183 L172.85207,960.139298 L137.537179,960.139298 L137.537179,967.006082 L147.346871,967.006082 L147.346871,970.929959 L124.294095,970.929959 L124.294095,967.006082 L134.103787,967.006082 L134.103787,960.139298 L99.7698646,960.139298 L99.7698646,913.543261 L146.856386,913.543261 Z M162.033942,964.34177 C161.918841,964.34177 161.808973,964.347002 161.704336,964.357465 L161.555229,964.373161 L161.555229,964.373161 L161.421817,964.388856 L161.421817,969.803806 L161.908377,969.803806 C162.79779,969.803806 163.441305,969.60238 163.838925,969.199529 C164.236544,968.796678 164.435354,968.113923 164.435354,967.151265 C164.435354,966.240926 164.262704,965.545092 163.917402,965.063763 C163.572101,964.582434 162.944281,964.34177 162.033942,964.34177 Z M149.014234,896.114781 C152.274123,904.72582 158.229003,905.380943 166.878873,898.080151 C168.111466,908.251771 173.314315,911.370752 182.487422,907.437096 L182.487422,907.437096 L173.709515,920.359453 L147.572544,910.90353 Z M95.9754758,898.887581 C96.383559,898.887581 96.8151854,898.929436 97.2703551,899.013145 C97.7255248,899.096854 98.1414558,899.24073 98.5181479,899.444771 C98.8948401,899.648813 99.2061343,899.923484 99.4520306,900.268786 C99.6979269,900.614087 99.820875,901.048329 99.820875,901.571513 C99.820875,901.99006 99.726702,902.34844 99.5383559,902.646655 C99.3500098,902.94487 99.1067294,903.18815 98.8085148,903.376496 C98.5103002,903.564842 98.1780786,903.708718 97.8118501,903.808122 C97.5371787,903.882676 97.2654503,903.938101 96.9966647,903.974397 L96.7288601,904.004316 L96.7288601,904.082794 C97.24158,904.176967 97.6993656,904.27114 98.102217,904.365313 C98.5050683,904.459486 98.8529854,904.600746 99.1459682,904.789092 C99.438951,904.977438 99.6717677,905.239029 99.8444183,905.573867 C100.017069,905.908704 100.124321,906.358642 100.166176,906.923681 C100.218495,907.582892 100.260349,908.111307 100.29174,908.508927 C100.323131,908.906546 100.367602,909.215225 100.425152,909.434962 C100.482702,909.654699 100.56118,909.80119 100.660585,909.874436 C100.75999,909.947682 100.903865,909.984304 101.092211,909.984304 C101.301485,909.984304 101.474135,909.924138 101.610163,909.803806 C101.700848,909.723585 101.784557,909.646851 101.861291,909.573605 L101.97116,909.466353 L102.128115,909.607612 C102.023478,909.712249 101.921457,909.809038 101.822052,909.897979 C101.722647,909.98692 101.607547,910.062782 101.476751,910.125564 C101.345955,910.188346 101.186384,910.238049 100.998038,910.274671 C100.809692,910.311294 100.574259,910.329606 100.29174,910.329606 C99.7162383,910.329606 99.2663004,910.238049 98.9419266,910.054934 C98.6175528,909.87182 98.3768884,909.644235 98.2199333,909.37218 C98.0629782,909.100124 97.9661893,908.804526 97.9295664,908.485384 C97.8929436,908.166242 97.8694003,907.865411 97.8589366,907.582892 C97.8380093,907.153881 97.8092342,906.73795 97.7726113,906.335099 C97.7359885,905.932248 97.6496632,905.573867 97.5136355,905.259957 C97.3776077,904.946047 97.1735662,904.694919 96.9015107,904.506572 C96.6683203,904.345133 96.3544102,904.252882 95.9597803,904.229819 L95.7557387,904.224053 L94.7198352,904.224053 L94.7198352,909.890131 L96.1638219,909.890131 L96.1638219,910.109869 L91,910.109869 L91,909.890131 L92.4439867,909.890131 L92.4439867,899.154405 L91,899.154405 L91,898.934667 L93.3700216,898.934667 C93.8094958,898.934667 94.2437381,898.92682 94.6727487,898.911124 C95.1017592,898.895429 95.5360016,898.887581 95.9754758,898.887581 Z M107.346871,898.683539 C108.068864,898.683539 108.78301,898.819567 109.489307,899.091623 C110.195605,899.363678 110.823426,899.750834 111.372768,900.25309 C111.922111,900.755346 112.366817,901.364855 112.706886,902.081617 C113.046956,902.798378 113.21699,903.606697 113.21699,904.506572 C113.21699,905.291348 113.057419,906.036884 112.738277,906.743182 C112.419135,907.44948 111.990125,908.069453 111.451246,908.6031 C110.912367,909.136747 110.289778,909.55791 109.58348,909.866588 C108.877183,910.175266 108.131646,910.329606 107.346871,910.329606 C106.572559,910.329606 105.829638,910.180498 105.118109,909.882284 C104.406579,909.584069 103.781375,909.175986 103.242496,908.658034 C102.703617,908.140082 102.27199,907.530574 101.947616,906.829508 C101.623242,906.128442 101.461056,905.369825 101.461056,904.553659 C101.461056,903.664247 101.641554,902.858544 102.002551,902.136551 C102.363547,901.414558 102.826565,900.797201 103.391603,900.284481 C103.956641,899.771761 104.589693,899.376758 105.290759,899.09947 C105.991825,898.822183 106.677196,898.683539 107.346871,898.683539 Z M107.346871,898.903276 C106.614414,898.903276 106.028448,899.04192 105.588974,899.319207 C105.1495,899.596495 104.814662,899.986266 104.584461,900.488523 C104.354261,900.990779 104.202537,901.587208 104.129292,902.27781 C104.056046,902.968413 104.019423,903.727029 104.019423,904.553659 C104.019423,905.641881 104.082205,906.544373 104.207769,907.261134 C104.333333,907.977895 104.529527,908.548166 104.796351,908.971944 C105.063174,909.395723 105.408476,909.691322 105.832254,909.85874 C106.256033,910.026159 106.760905,910.109869 107.346871,910.109869 C108.121182,910.109869 108.728075,909.965993 109.16755,909.678242 C109.607024,909.390491 109.936629,908.992872 110.156366,908.485384 C110.376104,907.977895 110.514747,907.376234 110.572297,906.6804 C110.629848,905.984566 110.658623,905.228566 110.658623,904.412399 C110.658623,903.679942 110.635079,902.981492 110.587993,902.317049 C110.540906,901.652606 110.407495,901.066641 110.187758,900.559152 C109.96802,900.051664 109.635799,899.648813 109.191093,899.350598 C108.746387,899.052384 108.131646,898.903276 107.346871,898.903276 Z M117.713753,898.934667 L117.713753,899.154405 L116.473808,899.154405 L119.675692,904.632137 L122.563665,899.154405 L121.198156,899.154405 L121.198156,898.934667 L124.195998,898.934667 L124.195998,899.154405 L122.830489,899.154405 L119.801256,904.914656 L119.801256,909.890131 L121.260938,909.890131 L121.260938,910.109869 L116.08142,910.109869 L116.08142,909.890131 L117.525407,909.890131 L117.525407,905.511085 L113.884049,899.154405 L112.6598,899.154405 L112.6598,898.934667 L117.713753,898.934667 Z M128.990975,898.495193 L133.93506,909.890131 L136.061801,909.890131 L136.061801,899.154405 L134.617814,899.154405 L134.617814,898.934667 L139.781636,898.934667 L139.781636,899.154405 L138.33765,899.154405 L138.33765,909.890131 L140.927408,909.890131 C141.272709,909.890131 141.620627,909.832581 141.97116,909.717481 C142.321692,909.60238 142.651298,909.411418 142.959976,909.144595 C143.268655,908.877771 143.545942,908.53247 143.791838,908.108691 C143.996752,907.755542 144.163517,907.338812 144.292133,906.858501 L144.364724,906.562684 L144.568766,906.562684 L144.568766,910.109869 L130.011183,910.109869 L130.011183,909.890131 L131.470865,909.890131 L129.650186,905.683736 L125.883265,905.683736 L124.141063,909.890131 L125.537964,909.890131 L125.537964,910.109869 L122.571513,910.109869 L122.571513,909.890131 L123.889935,909.890131 L128.567196,898.495193 L128.990975,898.495193 Z M183.152246,901.77163 C184.506682,901.77163 185.604669,902.869618 185.604669,904.224053 C185.604669,905.578489 184.506682,906.676476 183.152246,906.676476 C181.797811,906.676476 180.699823,905.578489 180.699823,904.224053 C180.699823,902.869618 181.797811,901.77163 183.152246,901.77163 Z M127.719639,901.179125 L125.961742,905.463998 L129.571709,905.463998 L127.719639,901.179125 Z M95.4104375,899.107318 L95.2377869,899.111242 L95.2377869,899.111242 L95.0651364,899.123014 L94.7198352,899.154405 L94.7198352,904.004316 L95.363351,904.004316 C95.8342162,904.004316 96.2056765,903.941534 96.477732,903.81597 C96.7497875,903.690406 96.953829,903.520371 97.0898568,903.305866 C97.2258845,903.091361 97.3122098,902.848081 97.3488326,902.576025 C97.3854555,902.30397 97.4037669,902.026682 97.4037669,901.744163 C97.4037669,901.283762 97.3723759,900.888758 97.3095939,900.559152 C97.2468119,900.229547 97.1421751,899.957491 96.9956837,899.742986 C96.8491923,899.528481 96.6477667,899.36891 96.3914067,899.264273 C96.1350468,899.159636 95.808057,899.107318 95.4104375,899.107318 Z M168.437708,891.961938 C169.792144,891.961938 170.890131,893.059926 170.890131,894.414361 C170.890131,895.768797 169.792144,896.866784 168.437708,896.866784 C167.083273,896.866784 165.985285,895.768797 165.985285,894.414361 C165.985285,893.059926 167.083273,891.961938 168.437708,891.961938 Z M150.289778,890 C151.644214,890 152.742201,891.097987 152.742201,892.452423 C152.742201,893.806859 151.644214,894.904846 150.289778,894.904846 C148.935342,894.904846 147.837355,893.806859 147.837355,892.452423 C147.837355,891.097987 148.935342,890 150.289778,890 Z" id="Royal-IPTV"></path></g></g></svg>