<svg xmlns="http://www.w3.org/2000/svg" xmlns:xlink="http://www.w3.org/1999/xlink" width="100px" height="50px" viewBox="298 908 100 50"><title>Set IPTV</title><g id="Page-1" stroke="none" stroke-width="1" fill="none" fill-rule="evenodd"><g id="Light" fill="#FFFFFF"><path d="M395.858489,908 L395.858489,953.828336 L381.296,952.615 L381.296214,954.684941 L372.73017,957.683056 L350.458455,955.113243 L359.024499,952.115128 L359.024,950.758 L344.462224,949.545314 L344.462224,944.833 L347.031224,944.833 L347.032037,947.180658 L393.288676,951.035378 L393.288676,910.792959 L347.032037,914.647679 L347.031224,920.42 L344.462224,920.42 L344.462224,912.283022 L395.858489,908 Z M360.309,950.865 L360.309,952.263 L380.011,954.536 L380.011,952.507 L360.309,950.865 Z M398,908 L398,953.828336 L396.715093,953.828336 L396.715093,908 L398,908 Z M377.426436,923.753491 L382.427199,936.284676 L387.498231,923.753491 L390.484635,923.753491 L382.368642,943.194396 L374.440032,923.753491 L377.426436,923.753491 Z M305.003598,923.247559 C305.899035,923.247559 306.834447,923.371481 307.809834,923.619325 C308.785221,923.867169 309.720633,924.230941 310.61607,924.710639 L308.745246,928.380332 C308.233567,927.964594 307.721889,927.656787 307.210211,927.456913 C306.698532,927.257038 306.202844,927.157101 305.723145,927.157101 C305.115527,927.157101 304.619839,927.301011 304.23608,927.58883 C303.852321,927.876649 303.660442,928.252413 303.660442,928.716121 C303.660442,929.03592 303.756382,929.299754 303.948261,929.507624 C304.14014,929.715493 304.391982,929.89538 304.703786,930.047285 C305.01559,930.199189 305.367369,930.331106 305.759123,930.443036 C306.150877,930.554965 306.538633,930.67489 306.922392,930.80281 C308.457427,931.314488 309.580721,931.998058 310.292273,932.853521 C311.003826,933.708983 311.359603,934.824282 311.359603,936.199418 C311.359603,937.126835 311.203701,937.966307 310.891897,938.717835 C310.580093,939.469362 310.124379,940.112958 309.524756,940.648621 C308.925133,941.184284 308.189595,941.600023 307.318143,941.895837 C306.446691,942.191651 305.459311,942.339558 304.356005,942.339558 C302.069442,942.339558 299.950774,941.659985 298,940.300839 L300.014734,936.511222 C300.718291,937.13483 301.413854,937.598538 302.101422,937.902347 C302.78899,938.206156 303.468563,938.358061 304.14014,938.358061 C304.907658,938.358061 305.479299,938.182171 305.855063,937.830392 C306.230826,937.478613 306.418708,937.078865 306.418708,936.631146 C306.418708,936.359317 306.370738,936.123465 306.274799,935.923591 C306.178859,935.723717 306.01896,935.539832 305.7951,935.371938 C305.571241,935.204043 305.279424,935.048141 304.919651,934.904232 C304.559877,934.760322 304.124151,934.600423 303.612472,934.424533 C303.004854,934.232654 302.409228,934.020787 301.825595,933.788933 C301.241962,933.557078 300.722289,933.249272 300.266575,932.865513 C299.810862,932.481754 299.443093,931.998058 299.163269,931.414425 C298.883445,930.830792 298.743533,930.091257 298.743533,929.19582 C298.743533,928.300383 298.89144,927.488893 299.187254,926.76135 C299.483068,926.033807 299.898806,925.410199 300.43447,924.890526 C300.970133,924.370853 301.625721,923.967106 302.401234,923.679287 C303.176746,923.391468 304.044201,923.247559 305.003598,923.247559 Z M325.455885,923.751242 L325.455885,927.732739 L319.867398,927.732739 L319.867398,930.75484 L325.144081,930.75484 L325.144081,934.736337 L319.867398,934.736337 L319.867398,937.854377 L325.455885,937.854377 L325.455885,941.835875 L315.166353,941.835875 L315.166353,923.751242 L325.455885,923.751242 Z M340.415624,923.751242 L340.415624,927.732739 L336.554052,927.732739 L336.554052,941.835875 L331.853007,941.835875 L331.853007,927.732739 L327.991434,927.732739 L327.991434,923.751242 L340.415624,923.751242 Z M347.644375,923.753491 L347.644375,941.835875 L344.915622,941.835875 L344.915622,923.753491 L347.644375,923.753491 Z M355.081107,923.753491 C356.59578,923.753491 357.739592,923.858893 358.512544,924.069698 C359.293303,924.280503 359.980371,924.67869 360.573748,925.26426 C361.612158,926.279247 362.131363,927.559692 362.131363,929.105595 C362.131363,930.760805 361.577024,932.07248 360.468346,933.040622 C359.359668,934.008763 357.864514,934.492834 355.982884,934.492834 L354.718054,934.492834 L354.718054,941.835875 L351.9893,941.835875 L351.9893,923.753491 L355.081107,923.753491 Z M374.076979,923.753491 L374.076979,926.318285 L369.931148,926.318285 L369.931148,941.835875 L367.202394,941.835875 L367.202394,926.318285 L363.044851,926.318285 L363.044851,923.753491 L374.076979,923.753491 Z M355.619831,926.271439 L354.718054,926.271439 L354.718054,931.963174 L355.736945,931.963174 C358.243182,931.963174 359.496301,930.998936 359.496301,929.070461 C359.496301,927.204446 358.204144,926.271439 355.619831,926.271439 Z" id="Set-IPTV"></path></g></g></svg>