<svg xmlns="http://www.w3.org/2000/svg" xmlns:xlink="http://www.w3.org/1999/xlink" width="98px" height="98px" viewBox="499 885 98 98"><title>Smart IPTV</title><g id="Page-1" stroke="none" stroke-width="1" fill="none" fill-rule="evenodd"><g id="Light" fill="#FFFFFF"><path d="M591.513482,905.516265 L591.535356,905.762718 L596.640261,971.433478 C596.699245,972.192255 596.673845,972.955235 596.564527,973.708409 C595.760271,979.24956 590.679197,983.114226 585.150387,982.443969 L584.90619,982.411447 L507.035421,971.108578 C501.933158,970.313578 498.416655,965.594221 499.080389,960.502721 L499.114573,960.263797 L506.262674,914.387704 C507.053846,909.310013 511.018958,905.328933 516.070309,904.501555 L516.337161,904.460932 L578.946217,895.650715 C579.17377,895.618694 579.402264,895.593761 579.631368,895.575951 C585.649127,895.108162 590.916975,899.54018 591.513482,905.516265 Z M579.999344,900.309684 L579.803254,900.328 L579.607829,900.352406 L516.998773,909.162624 C513.962524,909.589879 511.549031,911.909701 510.990055,914.90839 L510.954081,915.118687 L503.80598,960.994781 C503.411444,963.526887 505.095938,965.903026 507.591029,966.386531 L507.815395,966.424543 L585.588182,977.712668 C588.615757,978.152098 591.426319,976.053991 591.865748,973.026417 C591.912839,972.701973 591.93101,972.374149 591.920134,972.046809 L591.906528,971.801454 L586.801623,906.130694 C586.530653,902.644869 583.485169,900.038714 579.999344,900.309684 Z M514.220586,939.41679 L514.220586,962.365523 L510.263908,962.365523 L510.263908,939.41679 L514.220586,939.41679 Z M535.334662,939.41679 C538.096086,939.41679 540.334662,941.655366 540.334662,944.41679 L540.334662,947.869496 C540.334662,950.630919 538.096086,952.869496 535.334662,952.869496 L522.133942,952.869496 L522.133942,962.365523 L518.177264,962.365523 L518.177264,939.41679 L535.334662,939.41679 Z M564.866067,939.41679 L573.965908,958.26779 L583.066787,939.41679 L587.023466,939.41679 L575.944767,962.365523 L571.988088,962.365523 L562.818908,943.37279 L555.369908,943.37279 L555.37004,962.365523 L551.413361,962.365523 L551.412908,943.37279 L541.125998,943.373468 L541.125998,939.41679 L564.866067,939.41679 Z M535.16932,942.582132 L522.133942,942.582132 L522.133942,949.704153 L535.16932,949.704153 C536.223682,949.704153 537.087485,948.888275 537.163834,947.853415 L537.16932,947.704153 L537.16932,944.582132 C537.16932,943.52777 536.353442,942.663967 535.318582,942.587618 L535.16932,942.582132 Z M580.69278,918.842063 L580.69278,920.424734 L575.9446,920.424056 L575.944767,928.338091 L574.362095,928.338091 L574.3616,920.424056 L569.614081,920.424734 L569.614081,918.842063 L580.69278,918.842063 Z M534.003977,918.842063 L538.7516,925.625056 L543.500005,918.842063 L545.082676,918.842063 L545.082676,928.338091 L543.500005,928.338091 L543.4996,921.103056 L539.543327,926.755419 L537.960655,926.755419 L534.0036,921.103056 L534.003977,928.338091 L532.421306,928.338091 L532.421306,918.842063 L534.003977,918.842063 Z M528.838635,916.468056 C529.943204,916.468056 530.838635,917.363486 530.838635,918.468056 L530.838635,919.633398 L529.255963,919.633398 L529.255963,919.050727 C529.255963,918.498442 528.808248,918.050727 528.255963,918.050727 L521.551271,918.050727 C520.998986,918.050727 520.551271,918.498442 520.551271,919.050727 L520.551271,921.007405 C520.551271,921.55969 520.998986,922.007405 521.551271,922.007405 L528.838635,922.007405 C529.943204,922.007405 530.838635,922.902836 530.838635,924.007405 L530.838635,926.338091 C530.838635,927.44266 529.943204,928.338091 528.838635,928.338091 L520.9686,928.338091 C519.86403,928.338091 518.9686,927.44266 518.9686,926.338091 L518.9686,925.172748 L520.551271,925.172748 L520.551271,925.755419 C520.551271,926.307704 520.998986,926.755419 521.551271,926.755419 L528.255963,926.755419 C528.808248,926.755419 529.255963,926.307704 529.255963,925.755419 L529.255963,924.590077 C529.255963,924.037792 528.808248,923.590077 528.255963,923.590077 L520.9686,923.590077 C519.86403,923.590077 518.9686,922.694646 518.9686,921.590077 L518.9686,918.468056 C518.9686,917.363486 519.86403,916.468056 520.9686,916.468056 L528.838635,916.468056 Z M552.204697,918.842063 L557.744047,928.338091 L556.161375,928.338091 L555.2376,926.755056 L547.5886,926.755056 L546.665348,928.338091 L545.082676,928.338091 L550.622026,918.842063 L552.204697,918.842063 Z M566.822746,918.842063 C567.927315,918.842063 568.822746,919.737493 568.822746,920.842063 L568.822746,922.381412 C568.822746,923.485982 567.927315,924.381412 566.822746,924.381412 L565.657403,924.381412 L568.03141,928.338091 L566.448739,928.338091 L564.074732,924.381412 L560.909389,924.381412 L560.909389,928.338091 L559.326718,928.338091 L559.326718,918.842063 L566.822746,918.842063 Z M551.4126,920.199056 L548.5116,925.172056 L554.3136,925.172056 L551.4126,920.199056 Z M566.240074,920.424734 L560.909389,920.424734 L560.909389,922.798741 L566.240074,922.798741 C566.75291,922.798741 567.175582,922.412701 567.233347,921.915362 L567.240074,921.798741 L567.240074,921.424734 C567.240074,920.911898 566.854034,920.489227 566.356696,920.431462 L566.240074,920.424734 Z M556.146296,895.691144 C556.156335,895.758071 556.161375,895.825653 556.161375,895.893329 C556.161375,896.803023 555.495843,897.57583 554.596214,897.710774 L541.899824,899.615233 C541.1554,899.726896 540.461405,899.213944 540.349742,898.46952 C540.339703,898.402593 540.334662,898.335012 540.334662,898.267336 C540.334662,897.357642 541.000195,896.584835 541.899824,896.44989 L554.596214,894.545432 C555.340637,894.433768 556.034632,894.946721 556.146296,895.691144 Z M559.314563,890.962182 C559.322657,891.022891 559.326718,891.084069 559.326718,891.145315 C559.326718,892.051339 558.656006,892.817415 557.75793,892.937158 L537.155436,895.684157 C536.396874,895.785299 535.699945,895.252354 535.598804,894.493791 C535.590709,894.433082 535.586648,894.371904 535.586648,894.310658 C535.586648,893.404634 536.25736,892.638558 537.155436,892.518815 L557.75793,889.771816 C558.516493,889.670674 559.213421,890.203619 559.314563,890.962182 Z M562.481272,886.224006 C562.488457,886.281491 562.492061,886.339368 562.492061,886.397301 C562.492061,887.301463 561.818791,888.064131 560.921611,888.176279 L532.409084,891.740345 C531.643416,891.836053 530.945132,891.292943 530.849424,890.527275 C530.842238,890.469789 530.838635,890.411912 530.838635,890.353979 C530.838635,889.449818 531.511905,888.687149 532.409084,888.575002 L560.921611,885.010936 C561.687279,884.915228 562.385563,885.458337 562.481272,886.224006 Z" id="Smart-IPTV"></path></g></g></svg>