<svg xmlns="http://www.w3.org/2000/svg" xmlns:xlink="http://www.w3.org/1999/xlink" width="100px" height="34px" viewBox="698 514 100 34"><title>Smart STB</title><g id="Page-1" stroke="none" stroke-width="1" fill="none" fill-rule="evenodd"><g id="Light" fill="#FFFFFF"><path d="M785.390423,514 C788.76322,514 791.550847,514.899495 793.603654,516.798567 C795.661785,518.702565 796.734701,521.160345 796.734701,523.967594 C796.734701,525.837487 796.253354,527.556337 795.3048,529.05357 L795.108864,529.35004 L795.038439,529.4472 L795.197072,529.593822 L795.445788,529.845079 L795.683907,530.106071 L795.911333,530.376854 C797.311941,532.115863 798,534.263161 798,536.695017 C798,538.659463 797.528504,540.483174 796.582313,542.107767 C795.645241,543.716701 794.345902,545.007079 792.73121,545.937274 C791.598363,546.593132 790.156393,546.995543 788.351246,547.230997 L787.277647,547.366637 L786.343427,547.474175 L785.795214,547.530264 L785.304699,547.573878 L784.870181,547.605024 L784.489961,547.623706 L784.162339,547.629932 L723.669864,547.629932 C721.978638,547.629932 720.596191,546.307887 720.499602,544.640873 L720.494211,544.454279 L720.494211,539.267379 L720.497361,539.148768 C719.158551,539.017453 718.112471,537.888462 718.112471,536.515146 C718.112471,535.053592 719.297295,533.868768 720.758849,533.868768 C721.35493,533.868768 721.904982,534.065845 722.3474,534.398395 L722.34703,532.36961 C721.698836,532.652972 720.982568,532.810217 720.229573,532.810217 C717.306465,532.810217 714.936818,530.44057 714.936818,527.517461 C714.936818,524.594353 717.306465,522.224706 720.229573,522.224706 C720.784917,522.224706 721.320284,522.310236 721.82322,522.468841 C722.109423,521.354505 722.597208,520.286336 723.276573,519.278313 C724.452911,517.532894 726.166846,516.20358 728.338834,515.285158 C730.301531,514.455235 732.762207,514.046404 735.783337,514.003739 L736.322308,514 L785.390423,514 Z M785.390423,517.175913 L736.37041,517.175417 L736.370073,517.176417 L736.283576,517.175417 C733.442855,517.175417 731.206872,517.520302 729.575629,518.210071 C727.944385,518.899839 726.722502,519.847522 725.909982,521.053118 C725.097461,522.258714 724.691201,523.539285 724.691201,524.894831 C724.691201,526.95814 725.485114,528.655571 727.072941,529.987125 C728.648363,531.318679 731.284403,532.386322 734.981062,533.190052 C737.238753,533.669892 738.677721,534.179721 739.297966,534.71954 C739.91821,535.259359 740.228333,535.871154 740.228333,536.554925 C740.228333,537.274684 739.902704,537.907472 739.251447,538.453289 C738.60019,538.999107 737.672924,539.272015 736.469649,539.272015 L736.469649,539.272015 L724.686073,539.267379 L724.686073,544.454279 L736.372478,544.454279 L736.829512,544.449956 C739.253555,544.406729 741.279648,544.039293 742.90779,543.34765 C744.644476,542.609897 745.996609,541.52726 746.964191,540.099738 C747.931773,538.672216 748.415564,537.112738 748.415564,535.421305 C748.415564,533.981787 748.052721,532.680223 747.327034,531.516613 C746.601348,530.353003 745.44149,529.378329 743.847461,528.592593 C742.253432,527.806856 739.61429,527.030116 735.930036,526.262373 C734.441449,525.962474 733.498677,525.638582 733.10172,525.290699 C732.692359,524.954811 732.487678,524.576938 732.487678,524.157078 C732.487678,523.581271 732.349156,522.701054 735.446245,522.701054 L735.446245,522.701054 L754.045319,522.701054 L754.045319,544.454279 L762.474446,544.454279 L762.474446,522.701054 L769.611073,522.700417 L769.611396,544.454279 L784.162339,544.454279 C784.782584,544.454279 786.04168,544.33023 787.93963,544.082132 C789.366193,543.896059 790.433014,543.598341 791.140093,543.18898 C792.281343,542.53152 793.180698,541.638368 793.838157,540.509522 C794.495617,539.380677 794.824347,538.109175 794.824347,536.695017 C794.824347,534.958331 794.362264,533.516262 793.4381,532.368809 C792.513935,531.221357 791.071866,530.411937 789.111892,529.940551 C790.402001,529.493975 791.381988,528.886135 792.051852,528.117031 C793.056649,526.963376 793.559047,525.58023 793.559047,523.967594 C793.559047,522.044835 792.855069,520.432198 791.447114,519.129684 C790.039158,517.82717 788.020261,517.175913 785.390423,517.175913 L785.390423,517.175913 Z M708.585511,530.693115 C710.923998,530.693115 712.819716,532.588833 712.819716,534.927319 C712.819716,537.265806 710.923998,539.161524 708.585511,539.161524 C706.247025,539.161524 704.351307,537.265806 704.351307,534.927319 C704.351307,532.588833 706.247025,530.693115 708.585511,530.693115 Z M782.394641,533.066585 C783.870824,533.066585 784.903531,533.311582 785.492764,533.801575 C786.081996,534.291568 786.376613,534.939724 786.376613,535.746042 C786.376613,536.614385 786.078895,537.305958 785.48346,537.820761 C784.888025,538.335564 783.864621,538.592966 782.413248,538.592966 L782.413248,538.592966 L778.114952,538.592966 L778.114952,533.066585 Z M700.646378,526.45891 C702.107932,526.45891 703.292756,527.643734 703.292756,529.105288 C703.292756,530.566842 702.107932,531.751666 700.646378,531.751666 C699.184824,531.751666 698,530.566842 698,529.105288 C698,527.643734 699.184824,526.45891 700.646378,526.45891 Z M711.231889,523.283257 C712.693443,523.283257 713.878267,524.468081 713.878267,525.929635 C713.878267,527.391189 712.693443,528.576013 711.231889,528.576013 C709.770335,528.576013 708.585511,527.391189 708.585511,525.929635 C708.585511,524.468081 709.770335,523.283257 711.231889,523.283257 Z M781.836421,522.702294 C783.114125,522.702294 784.010379,522.925583 784.525182,523.372159 C785.039985,523.818735 785.297387,524.43898 785.297387,525.232893 C785.297387,526.088831 785.039985,526.743189 784.525182,527.195968 C784.010379,527.648747 783.095518,527.875136 781.780599,527.875136 L781.780599,527.875136 L778.114952,527.875136 L778.114952,522.702294 Z" id="Smart-STB"></path></g></g></svg>