<svg xmlns="http://www.w3.org/2000/svg" xmlns:xlink="http://www.w3.org/1999/xlink" width="100px" height="100px" viewBox="85 861 100 100"><title>Smart Plus</title><g id="Page-1" stroke="none" stroke-width="1" fill="none" fill-rule="evenodd"><g id="Light" fill="#FFFFFF"><path d="M156.052632,861 C172.039822,861 185,873.960178 185,889.947368 L185,932.052632 C185,948.039822 172.039822,961 156.052632,961 L113.947368,961 C97.9601783,961 85,948.039822 85,932.052632 L85,889.947368 C85,873.960178 97.9601783,861 113.947368,861 L156.052632,861 Z M135,866.263158 C110.292524,866.263158 90.2631579,886.292524 90.2631579,911 C90.2631579,935.707476 110.292524,955.736842 135,955.736842 C159.090462,955.736842 178.733548,936.695361 179.699608,912.84205 L177.390799,919.684211 L162.653933,919.684211 L157.631579,906.482496 L169.757268,898.105263 L179.299307,904.718444 C176.245402,882.985049 157.575504,866.263158 135,866.263158 Z M172.105263,901 L167.368421,901 L167.367474,907.578 L160.789474,907.578947 L160.789474,912.315789 L167.367474,912.315 L167.368421,918.894737 L172.105263,918.894737 L172.104474,912.315 L178.684211,912.315789 L178.684211,907.578947 L172.104474,907.578 L172.105263,901 Z M105.458478,901.803324 C106.235588,901.981904 107.285468,902.493834 107.697863,902.910521 C108.182777,903.386734 108.42638,904.339161 108.32798,905.33921 C108.250127,906.160678 108.233895,906.184489 107.94709,906.255921 C107.78583,906.291637 107.174331,906.315448 106.607202,906.291637 L105.566023,906.255921 L105.458816,905.601127 C105.315871,904.684416 104.864509,904.220108 104.002986,904.11296 C102.573246,903.922475 101.312391,904.243919 100.644674,904.970144 C100.481262,905.148724 100.300554,905.553506 100.168554,906.017814 C100.006265,906.648797 100.007364,906.839283 100.167583,907.267875 C100.187553,907.319838 100.207493,907.36841 100.228799,907.414369 L100.247427,907.453141 C100.250598,907.459502 100.253806,907.465814 100.257053,907.47208 L100.27705,907.509136 C100.526989,907.95363 101.03371,908.174361 103.378937,909.053675 L103.535706,909.113056 L103.691736,909.173048 C104.780292,909.594659 105.780939,910.046477 105.988474,910.220399 C106.498275,910.62518 106.928037,911.601418 106.94759,912.410981 C106.975798,913.172923 106.675065,914.827765 106.36776,915.601612 C106.062618,916.363553 105.333223,917.232643 104.640585,917.637425 C103.547516,918.280313 102.713078,918.482704 100.904554,918.54223 C98.9510022,918.613662 98.1695653,918.458893 97.0785429,917.780289 C95.9972624,917.11359 95.7049736,916.363553 95.8693331,914.672995 L95.9536765,913.815811 L98.6919043,913.815811 L98.6843727,914.315835 C98.6714498,915.042061 98.9593998,915.684949 99.4042477,915.923056 C99.9887203,916.2445 102.121939,916.232595 102.74207,915.899245 C103.400079,915.55399 103.83294,914.875386 104.006024,913.922959 C104.120692,913.291976 104.102273,913.065775 103.929072,912.708614 C103.64221,912.125253 103.098868,911.839525 100.845438,911.006151 C98.7576067,910.244209 97.9848006,909.779901 97.5810367,909.053675 C97.1621164,908.279828 97.1371831,907.827426 97.4335889,906.196394 L97.4661048,906.018405 C97.686238,904.821032 97.7565655,904.621643 98.1325661,904.053433 C98.8597744,902.934331 99.8900658,902.243822 101.413914,901.850946 C102.212636,901.648555 104.621842,901.624744 105.458478,901.803324 Z M158.122984,897.505497 L157.774664,899.553215 L157.436087,901.612839 L158.774899,901.648555 L160.101807,901.684271 L159.69506,903.922475 L158.355171,903.958191 L157.003378,903.993907 L155.977022,909.641715 C155.968392,909.689234 155.959843,909.736316 155.951374,909.782964 L155.853578,910.322205 C155.197866,913.942095 155.089342,914.645059 155.174739,914.951239 L155.190707,914.999028 C155.196588,915.01402 155.203006,915.028221 155.209902,915.042061 C155.417743,915.470653 156.110451,915.851624 156.871317,915.923056 L157.501224,915.994488 L157.075005,918.33984 L156.277347,918.33984 C154.13655,918.327934 152.573618,917.363602 152.28451,915.875434 C152.272924,915.814717 152.26294,915.756976 152.25533,915.696854 L152.251054,915.660453 C152.19801,915.170143 152.306727,914.458871 152.972062,910.783645 L153.049281,910.357533 C153.058127,910.308766 153.067062,910.25952 153.076086,910.209789 L154.216441,903.93438 L153.14496,903.93438 C152.561599,903.93438 152.07997,903.898664 152.086461,903.862948 C152.092952,903.827232 152.178441,903.684368 152.275836,903.541504 C152.480366,903.267681 153.009511,902.124768 152.960802,902.065242 C152.953224,902.041431 152.678337,902.243822 152.35908,902.493834 C151.716238,903.017669 150.973803,903.303397 149.28328,903.696273 C147.815707,904.041528 147.189086,904.410593 146.862298,905.16063 C146.713044,905.533319 146.289465,907.603615 145.523713,911.806201 L144.312494,918.470798 L142.92606,918.435082 L141.527721,918.399366 L142.796658,911.613323 C144.218132,904.053433 144.193245,904.124865 145.171565,903.196249 C145.831715,902.577171 146.56332,902.220011 147.857727,901.910472 C147.926052,901.894134 147.992239,901.878881 148.057511,901.864646 L148.251801,901.824923 L148.251801,901.824923 L148.447924,901.790891 C149.013128,901.702139 149.688666,901.676934 151.224645,901.672963 L154.627515,901.672366 L155.384756,897.505497 L158.122984,897.505497 Z M139.272891,901.850946 C140.738358,902.17239 141.721168,903.053385 141.933406,904.243919 L141.938203,904.275466 L141.938203,904.275466 L141.946475,904.339839 L141.949894,904.373047 C141.995265,904.85526 141.881561,905.625578 141.232447,909.213205 L141.162546,909.599047 C141.154559,909.643085 141.146497,909.687516 141.13836,909.732343 L141.031362,910.321032 C140.20591,914.855539 140.016845,915.701512 139.530738,916.477416 L139.497124,916.530252 C139.451661,916.60067 139.403568,916.671187 139.352143,916.744524 C139.013426,917.232643 138.214739,917.82791 137.479882,918.137449 C137.436243,918.155691 137.394391,918.172617 137.353186,918.18832 L137.303977,918.206583 C136.891382,918.355387 136.498192,918.383408 134.950518,918.387011 L134.505734,918.387461 C134.358688,918.388268 134.220317,918.388911 134.089895,918.38933 L133.636648,918.389785 C132.687299,918.387767 132.246516,918.364284 131.867529,918.282836 L131.8012,918.267854 C131.647504,918.231457 131.499829,918.184868 131.326986,918.125543 C130.330153,917.780289 129.561651,917.030252 129.416554,916.256405 C129.318025,915.815908 129.361284,915.446842 129.68909,913.97058 C129.900054,913.006248 130.179198,911.994294 130.310133,911.732377 C130.455138,911.458554 130.86096,910.994246 131.266794,910.660896 C132.056815,909.982292 132.727818,909.696564 135.093671,908.994149 C135.898883,908.756042 136.948682,908.351261 137.434614,908.101248 C138.42271,907.577414 138.442194,907.601224 137.91954,908.708421 C137.327629,909.934671 136.488922,910.815666 135.657735,911.065678 C135.418553,911.13711 134.904471,911.279974 134.527839,911.387122 C133.611152,911.649039 133.022422,912.137158 132.695633,912.887194 C132.253065,913.94677 132.332192,915.280168 132.865804,915.684949 C133.003265,915.780192 133.403731,915.934961 133.76523,916.042109 C134.966617,916.375459 136.372499,916.042109 137.096491,915.268262 C137.104965,915.258976 137.113232,915.249765 137.12132,915.240512 L137.137266,915.221918 C137.139887,915.218798 137.142489,915.215665 137.145075,915.212514 L137.160398,915.193366 C137.392495,914.895482 137.499548,914.376314 138.27684,910.279925 C138.413551,909.552212 138.529192,908.931227 138.626245,908.400728 L138.702872,907.979242 C139.055368,906.026557 139.113462,905.487903 139.042665,905.279683 C138.733045,904.362972 138.129089,904.017717 136.819502,904.017717 C135.938507,904.017717 135.175501,904.220108 134.769667,904.553458 C134.389807,904.874902 134.020788,905.398737 133.885537,905.815423 L133.734054,906.255921 L130.995826,906.255921 L131.150525,905.470169 C131.415577,904.208203 132.130892,903.22006 133.273746,902.565266 C133.764005,902.291443 135.038917,901.827135 135.563828,901.755703 C136.323595,901.63665 138.562886,901.696176 139.272891,901.850946 Z M124.447481,901.672366 C125.971365,901.672366 126.731154,901.81523 127.565651,902.267633 C128.520288,902.779562 129.073407,903.470072 129.142745,904.267729 C129.175607,904.535726 128.749401,907.141567 128.009152,911.225818 L127.960431,911.49427 L126.739115,918.280313 L125.351605,918.316029 L123.976,918.351745 L125.34591,910.814353 C125.357822,910.748867 125.369602,910.684098 125.381252,910.620037 L125.482575,910.062383 C126.471601,904.612669 126.389371,904.820137 125.644751,904.386783 C125.25943,904.148676 125.015908,904.11296 124.003954,904.11296 C122.63484,904.11296 122.012535,904.327256 121.43681,905.00586 L121.09159,905.398737 L118.739815,918.33984 L116.013493,918.33984 L117.1634,911.815714 L118.311144,905.303494 L118.116296,904.934428 C117.788303,904.315351 117.265533,904.11296 115.967851,904.11296 C114.991613,904.11296 114.747016,904.148676 114.199393,904.410593 C114.175973,904.421546 114.153066,904.432142 114.130649,904.442449 L114.064849,904.472574 C113.152924,904.889013 113.088049,904.908058 112.197057,909.793892 L111.959186,911.10294 C111.94697,911.170271 111.93462,911.238336 111.922134,911.307142 L110.642021,918.351745 L109.315114,918.316029 L107.976301,918.280313 L110.46438,904.589174 L110.921052,903.910569 C111.166702,903.541504 111.570361,903.089101 111.81711,902.910521 C112.366884,902.505739 113.673173,901.934283 114.37774,901.791419 C114.602396,901.746323 115.241365,901.714892 115.950188,901.712656 L116.12147,901.712688 C116.293741,901.713296 116.468449,901.715658 116.64083,901.719987 C118.208008,901.743798 118.427719,901.779514 119.133408,902.089052 C119.565263,902.267633 119.957075,902.470023 120.029595,902.52955 C120.109693,902.612887 120.422471,902.52955 120.977671,902.291443 C122.026382,901.827135 122.935503,901.672366 124.447481,901.672366 Z" id="Smart-Plus"></path></g></g></svg>