<svg xmlns="http://www.w3.org/2000/svg" xmlns:xlink="http://www.w3.org/1999/xlink" width="160px" height="24px" viewBox="668 920 160 24"><title>Smart One</title><g id="Page-1" stroke="none" stroke-width="1" fill="none" fill-rule="evenodd"><g id="Light" fill="#FFFFFF"><path d="M788.895265,929.539146 C789.043678,930.288377 789.121495,931.063005 789.121495,931.855808 C789.121495,938.40359 783.813469,943.711615 777.265688,943.711615 C776.361207,943.711615 775.480383,943.610331 774.633939,943.418485 L774.634154,938.337088 L788.895265,929.539146 Z M769.275132,923.09721 L773.634179,925.50661 L773.63409,943.145068 C768.862761,941.611401 765.40988,937.136836 765.40988,931.855808 C765.40988,928.38653 766.900005,925.265289 769.275132,923.09721 Z M675.519381,921.708945 C677.536576,921.708945 679.250318,922.195872 680.660608,923.169727 C682.070898,924.143581 682.776043,925.700438 682.776043,927.840297 L680.326592,927.840297 C680.195605,926.809671 679.916167,926.019233 679.488277,925.468983 C678.693625,924.46456 677.344462,923.962348 675.440789,923.962348 C673.903879,923.962348 672.799225,924.28551 672.126826,924.931835 C671.454428,925.57816 671.118229,926.329294 671.118229,927.185238 C671.118229,928.128523 671.511189,928.818518 672.297109,929.255224 C672.812323,929.534716 673.978105,929.88408 675.794453,930.303318 L678.492779,930.919074 C679.793913,931.216034 680.798144,931.62217 681.505472,932.137483 C682.728014,933.037097 683.339285,934.342848 683.339285,936.054735 C683.339285,938.18586 682.564281,939.709964 681.014272,940.627047 C679.464263,941.544129 677.663196,942.00267 675.611072,942.00267 C673.218382,942.00267 671.345272,941.391282 669.991744,940.168505 C668.638215,938.954463 667.974549,937.308081 668.000746,935.229361 L670.450197,935.229361 C670.511324,936.321126 670.768931,937.207639 671.223018,937.8889 C672.08753,939.164082 673.611342,939.801672 675.794453,939.801672 C676.772487,939.801672 677.663196,939.661926 678.466581,939.382435 C680.020956,938.840919 680.798144,937.871432 680.798144,936.473973 C680.798144,935.425879 680.470677,934.679112 679.815744,934.233672 C679.152078,933.796966 678.112917,933.417031 676.698261,933.093869 L674.091626,932.504316 C672.3888,932.120015 671.183722,931.69641 670.476394,931.233502 C669.253852,930.429963 668.642581,929.229022 668.642581,927.630678 C668.642581,925.901322 669.240753,924.482028 670.437098,923.372795 C671.633443,922.263562 673.327537,921.708945 675.519381,921.708945 Z M690.517639,921.708945 L696.346305,938.866744 L702.133536,921.708945 L706.028521,921.708945 L706.028521,942.00267 L703.418052,942.00267 L703.418052,930.025366 C703.418052,929.610927 703.42726,928.924799 703.445676,927.966983 C703.464092,927.009167 703.4733,925.982278 703.4733,924.886315 L697.68607,942.00267 L694.965105,942.00267 L689.136439,924.886315 L689.136439,925.507975 C689.136439,926.005302 689.147949,926.762806 689.170969,927.780485 C689.191687,928.696397 689.203082,929.394106 689.205154,929.873612 L689.205499,942.00267 L686.581218,942.00267 L686.581218,921.708945 L690.517639,921.708945 Z M719.111834,921.708945 L726.473633,942.00267 L723.462616,942.00267 L721.404627,935.924223 L713.379852,935.924223 L711.183743,942.00267 L708.366094,942.00267 L716.004133,921.708945 L719.111834,921.708945 Z M738.688825,921.708945 C740.235769,921.708945 741.511078,921.934585 742.51475,922.385863 C744.420807,923.251581 745.373835,924.849476 745.373835,927.179548 C745.373835,928.395237 745.122917,929.389892 744.621081,930.163513 C744.119245,930.937133 743.417134,931.558793 742.51475,932.028491 C743.306638,932.350833 743.902857,932.774482 744.303405,933.299439 C744.703953,933.824396 744.927247,934.676299 744.973287,935.85515 L745.069971,938.576636 C745.097595,939.350257 745.162051,939.925867 745.263339,940.303468 C745.429083,940.948152 745.723739,941.362591 746.147307,941.546787 L746.147307,942.00267 L742.777178,942.00267 C742.685098,941.827685 742.611434,941.602045 742.556186,941.325752 C742.500938,941.049459 742.454898,940.515293 742.418066,939.723253 L742.252322,936.338663 C742.187866,935.012456 741.695238,934.123713 740.774437,933.672435 C740.249581,933.423771 739.425465,933.299439 738.302088,933.299439 L732.04525,933.299439 L732.04525,942.00267 L729.296661,942.00267 L729.296661,921.708945 L738.688825,921.708945 Z M764.341789,921.708945 L764.341789,924.12651 L757.504847,924.12651 L757.504847,942.00267 L754.714821,942.00267 L754.714821,924.12651 L747.877879,924.12651 L747.877879,921.708945 L764.341789,921.708945 Z M795.570135,921.708945 L805.814051,938.148382 L805.814051,921.708945 L808.423351,921.708945 L808.423351,942.00267 L805.344654,942.00267 L794.948873,925.577048 L794.948873,942.00267 L792.325768,942.00267 L792.325768,921.708945 L795.570135,921.708945 Z M827.792913,921.708945 L827.792913,924.195583 L815.685211,924.195583 L815.685211,930.356918 L826.881729,930.356918 L826.881729,932.705409 L815.685211,932.705409 L815.685211,939.585106 L828,939.585106 L828,942.00267 L813.006882,942.00267 L813.006882,921.708945 L827.792913,921.708945 Z M717.440581,924.72054 L714.167136,933.686249 L720.520658,933.686249 L717.440581,924.72054 Z M738.757885,924.071251 L732.04525,924.071251 L732.04525,931.006207 L738.398772,931.006207 C739.687893,931.006207 740.707679,930.748333 741.458132,930.232586 C742.208584,929.716839 742.58381,928.786652 742.58381,927.442026 C742.58381,925.996093 742.058954,925.010647 741.009241,924.48569 C740.447553,924.209397 739.697101,924.071251 738.757885,924.071251 Z M777.265688,920 C782.614138,920 787.135401,923.541608 788.612246,928.407594 L784.811225,930.907585 L770.101146,922.408859 C772.091306,920.897189 774.573722,920 777.265688,920 Z" id="Smart-One"></path></g></g></svg>