<svg xmlns="http://www.w3.org/2000/svg" xmlns:xlink="http://www.w3.org/1999/xlink" width="100px" height="66px" viewBox="298 701 100 66"><title>Stebmu</title><g id="Page-1" stroke="none" stroke-width="1" fill="none" fill-rule="evenodd"><g id="Light" fill="#FFFFFF"><path d="M312.084507,701 L315.91339,708.758164 L324.475032,710.002243 L318.27977,716.041132 L319.742273,724.568179 L312.084507,720.542254 L304.426741,724.568179 L305.889245,716.041132 L302.225352,712.469718 L302.225352,755.929577 C302.225352,757.455956 303.439379,758.698783 304.954514,758.745138 L305.042254,758.746479 L390.957746,758.746479 C392.484125,758.746479 393.726952,757.532451 393.773307,756.017317 L393.774648,755.929577 L393.774648,710.15493 C393.774648,708.599198 392.513478,707.338028 390.957746,707.338028 L317.71831,707.338028 L314.197183,703.112676 L395.183099,703.112676 C396.73883,703.112676 398,704.373846 398,705.929577 L398,763.676056 C398,765.231788 396.73883,766.492958 395.183099,766.492958 L300.816901,766.492958 C299.26117,766.492958 298,765.231788 298,763.676056 L298,705.929577 C298,704.373846 299.26117,703.112676 300.816901,703.112676 L311.041901,703.112676 L312.084507,701 Z M348,759.802817 C346.638735,759.802817 345.535211,760.90634 345.535211,762.267606 C345.535211,763.628871 346.638735,764.732394 348,764.732394 C349.361265,764.732394 350.464789,763.628871 350.464789,762.267606 C350.464789,760.90634 349.361265,759.802817 348,759.802817 Z M347.647887,760.15493 C348.62022,760.15493 349.408451,760.943161 349.408451,761.915493 C349.408451,762.887825 348.62022,763.676056 347.647887,763.676056 C346.675555,763.676056 345.887324,762.887825 345.887324,761.915493 C345.887324,760.943161 346.675555,760.15493 347.647887,760.15493 Z M328.821916,735.859155 C329.84679,735.859155 330.62821,736.045237 331.166178,736.417402 C331.704145,736.789567 332.02419,737.381647 332.126313,738.193643 L329.790258,738.327195 C329.728254,737.974618 329.597866,737.718198 329.399091,737.557936 C329.200317,737.397674 328.925862,737.317542 328.575728,737.317542 C328.287596,737.317542 328.070585,737.377196 327.924696,737.496502 C327.778806,737.615809 327.705862,737.760935 327.705862,737.931882 C327.705862,738.05653 327.766041,738.168714 327.8864,738.268432 C327.994775,738.364336 328.241522,738.454097 328.62664,738.537717 L328.71797,738.556905 C328.872717,738.589466 329.021193,738.622082 329.163398,738.654752 L329.439447,738.720165 C329.57329,738.752908 329.700863,738.785706 329.822165,738.818558 L330.056407,738.884334 L330.056407,738.884334 L330.273926,738.950256 C330.587663,739.049248 330.84496,739.148731 331.045819,739.248704 C331.514489,739.481975 331.855505,739.771337 332.068869,740.116792 C332.282232,740.462246 332.388914,740.848657 332.388914,741.276023 C332.388914,741.778178 332.246672,742.241158 331.962187,742.664963 C331.677703,743.088768 331.280154,743.410183 330.769541,743.629209 C330.258927,743.848234 329.61519,743.957746 328.838329,743.957746 C327.474262,743.957746 326.529628,743.701327 326.004426,743.188487 C325.479223,742.675648 325.181974,742.023914 325.112676,741.233286 L327.470615,741.08905 C327.521676,741.462996 327.625622,741.747907 327.782454,741.943783 C328.03776,742.260746 328.402484,742.419228 328.876625,742.419228 C329.230407,742.419228 329.503038,742.338206 329.694518,742.176163 C329.885997,742.01412 329.981737,741.826257 329.981737,741.612574 C329.981737,741.409575 329.890557,741.227944 329.708195,741.067682 C329.53656,740.916847 329.151694,740.773898 328.553598,740.638837 L328.438956,740.613605 C327.35208,740.374992 326.577042,740.058029 326.113843,739.662715 C325.646996,739.267401 325.413573,738.763465 325.413573,738.150907 C325.413573,737.74847 325.53302,737.368292 325.771914,737.010373 C326.010808,736.652454 326.370061,736.371104 326.849673,736.166324 C327.329284,735.961545 327.986699,735.859155 328.821916,735.859155 Z M335.474476,735.992707 L335.474476,738.150907 L336.699948,738.150907 L336.699948,739.737504 L335.474476,739.737504 L335.474476,741.751468 C335.474476,741.993642 335.498183,742.153905 335.545597,742.232255 C335.618542,742.353342 335.746196,742.413886 335.928557,742.413886 C336.092683,742.413886 336.322459,742.367588 336.617885,742.274992 L336.782011,743.776116 C336.231278,743.893642 335.717018,743.952404 335.23923,743.952404 C334.68485,743.952404 334.276359,743.882957 334.013758,743.744063 C333.751157,743.605169 333.556942,743.394157 333.431112,743.111027 C333.305282,742.827897 333.242367,742.369368 333.242367,741.735442 L333.242367,739.737504 L332.421739,739.737504 L332.421739,738.150907 L333.242367,738.150907 L333.242367,737.109201 L335.474476,735.992707 Z M339.320488,735.992707 L339.320488,738.706483 C339.542969,738.478554 339.79554,738.307608 340.078201,738.193643 C340.360862,738.079679 340.673613,738.022697 341.016453,738.022697 C341.724017,738.022697 342.309398,738.271104 342.772598,738.767917 C343.235797,739.26473 343.467396,739.977898 343.467396,740.907419 C343.467396,741.527101 343.361626,742.072883 343.150087,742.544767 C342.938547,743.01665 342.645856,743.369227 342.272014,743.602498 C341.898173,743.835769 341.483299,743.952404 341.027395,743.952404 C340.63714,743.952404 340.279711,743.870493 339.955107,743.706669 C339.710742,743.578459 339.444494,743.338065 339.156362,742.985488 L339.156362,743.824195 L337.071966,743.824195 L337.071966,735.992707 L339.320488,735.992707 Z M366.981133,738.150907 L366.981133,741.270681 C366.981133,741.626819 367.048607,741.879678 367.183555,742.029256 C367.318503,742.178834 367.508159,742.253623 367.752524,742.253623 C368.018772,742.253623 368.236694,742.153905 368.406291,741.954467 C368.575887,741.755029 368.660686,741.39711 368.660686,740.880709 L368.660686,738.150907 L370.887324,738.150907 L370.887324,743.824195 L368.808399,743.824195 L368.808399,742.905357 C368.498384,743.282864 368.185633,743.551748 367.870147,743.712011 C367.554661,743.872273 367.167142,743.952404 366.70759,743.952404 C366.094855,743.952404 365.614331,743.773445 365.26602,743.415525 C364.917709,743.057606 364.743553,742.506482 364.743553,741.762152 L364.743553,738.150907 L366.981133,738.150907 Z M353.654129,735.992707 L353.654129,737.664778 L349.496279,737.664778 L349.496279,738.909482 L353.353232,738.909482 L353.353232,740.506764 L349.496279,740.506764 L349.496279,742.050624 L353.774488,742.050624 L353.774488,743.824195 L347.012511,743.824195 L347.012511,735.992707 L353.654129,735.992707 Z M362.150368,738.022697 C362.774045,738.022697 363.260951,738.203437 363.611086,738.564918 C363.961221,738.926399 364.136288,739.491769 364.136288,740.261028 L364.136288,743.824195 L361.904179,743.824195 L361.904179,740.592237 C361.904179,740.335817 361.853118,740.145283 361.750995,740.020634 C361.601459,739.824758 361.415449,739.72682 361.192968,739.72682 C360.930367,739.72682 360.718827,739.819416 360.558349,740.004608 C360.39787,740.1898 360.317631,740.487176 360.317631,740.896735 L360.317631,743.824195 L358.085522,743.824195 L358.084982,740.618947 L358.084982,740.618947 L358.080659,740.476492 C358.074175,740.345908 358.061207,740.250937 358.041755,740.191581 C357.994341,740.049125 357.912278,739.934271 357.795567,739.847017 C357.678855,739.759763 357.542084,739.716136 357.385253,739.716136 C357.129946,739.716136 356.92023,739.810513 356.756104,739.999266 C356.591979,740.188019 356.509916,740.49786 356.509916,740.928788 L356.509916,743.824195 L354.277807,743.824195 L354.277807,738.150907 L356.356732,738.150907 L356.356732,738.978929 C356.655805,738.633475 356.957614,738.387739 357.262158,738.241722 C357.566703,738.095705 357.934162,738.022697 358.364536,738.022697 C358.827735,738.022697 359.194282,738.102828 359.464178,738.26309 C359.734073,738.423353 359.954731,738.661966 360.126151,738.978929 C360.476286,738.608545 360.795419,738.356577 361.083551,738.223025 C361.371683,738.089473 361.727288,738.022697 362.150368,738.022697 Z M340.332596,739.646689 C340.029875,739.646689 339.782775,739.756201 339.591295,739.975227 C339.399815,740.194252 339.304075,740.526351 339.304075,740.971524 C339.304075,741.459434 339.397992,741.812902 339.585824,742.031927 C339.773657,742.250952 340.011639,742.360465 340.299771,742.360465 C340.566019,742.360465 340.789412,742.252733 340.969951,742.037269 C341.150489,741.821805 341.240758,741.459434 341.240758,740.950156 C341.240758,740.501421 341.152313,740.171993 340.975422,739.961871 C340.798531,739.75175 340.584255,739.646689 340.332596,739.646689 Z M308.956338,707.338028 L305.042254,707.338028 C303.666871,707.338028 302.521715,708.323742 302.274692,709.627263 L308.255624,708.758164 L308.956338,707.338028 Z" id="Stebmu"></path></g></g></svg>