<svg xmlns="http://www.w3.org/2000/svg" xmlns:xlink="http://www.w3.org/1999/xlink" width="100px" height="74px" viewBox="498 291 100 74"><title>Tivimate</title><g id="Page-1" stroke="none" stroke-width="1" fill="none" fill-rule="evenodd"><g id="Light" fill="#FFFFFF"><path d="M520.642987,291 L520.743,308.77 L533.540891,308.770445 L533.540891,321.381729 L520.814,321.381 L520.929607,341.731756 C520.784694,346.573083 522.313252,349.556647 525.51528,350.682447 C528.717308,351.808248 531.657258,351.29187 534.335129,349.133314 L538.906674,361.045773 C534.960466,363.172615 530.875737,364.280345 526.652487,364.368963 L526.100842,364.374742 L526.100842,364.374742 C513.747094,364.374742 503.732402,354.360051 503.732402,342.006302 L503.732,321.381 L498,321.381729 L498,308.770445 L503.732,308.77 L503.732402,291 L520.642987,291 Z M598,310.655585 L578.090675,364.374742 L561.70216,364.374742 L540.750717,317.889866 L569.375358,342.007576 L582.401199,310.655585 L598,310.655585 Z" id="Tivimate"></path></g></g></svg>