<svg xmlns="http://www.w3.org/2000/svg" xmlns:xlink="http://www.w3.org/1999/xlink" width="88px" height="100px" viewBox="97 481 88 100"><title>VLC Player</title><g id="Page-1" stroke="none" stroke-width="1" fill="none" fill-rule="evenodd"><g id="Light" fill="#FFFFFF" fill-rule="nonzero"><path d="M136.322255,481.634528 C135.839106,481.882901 135.827778,482.108333 135.827778,482.108333 L132.005556,494.35 C132.005556,494.35 134.463889,497.666667 141.002778,497.666667 C147.544444,497.666667 150.005556,494.358333 150.005556,494.358333 L146.218,482.219 L146.25211,482.321229 C147.052633,484.762405 151.046348,497.639303 155.451505,511.997593 L155.759474,513.001625 L155.759474,513.001625 L155.745032,513.012549 C155.423699,513.260779 150.29328,517.108333 141.008333,517.108333 C131.88078,517.108333 126.752814,513.387962 126.27793,513.027926 L126.241667,513 L120.461111,531.905556 C120.461111,531.905556 126.205556,539.333333 141.008333,539.333333 C155.749074,539.333333 161.382802,532.05531 161.51966,531.875606 C162.627321,535.526645 163.67454,538.993914 164.610068,542.11252 L171.561111,542.111111 C174.65619,542.111111 175.032966,544.305152 175.051969,544.430526 L175.052778,544.436111 L185.011111,578.183333 L183.966667,581 L98.8222222,581 L97,578.183333 L107.675,544.191667 C107.675,544.191667 108.014226,542.252124 110.052795,542.118362 L110.277778,542.111111 L117.372276,542.112737 C123.607169,521.328185 134.844919,485.068116 135.827778,482.105556 C135.827778,481.937327 136.005155,481.777596 136.322255,481.634528 Z M112.872222,558.138889 C112.872222,564.766667 125.463889,569.886111 141.005556,569.886111 C156.547222,569.886111 169.147222,564.763889 169.147222,558.138889 C169.147222,556.806944 168.25612,553.945877 167.071262,550.445193 L167.171408,550.73979 C167.037392,550.343532 166.900035,549.939865 166.759763,549.529297 L166.547222,548.908333 L166.547222,548.908333 C166.491056,548.994464 166.432772,549.08058 166.372398,549.166657 L166.547222,548.908333 C166.470699,549.025682 166.390245,549.143003 166.305929,549.260234 C166.172679,549.445497 166.02989,549.630407 165.877751,549.814835 C165.864643,549.830727 165.851099,549.847055 165.837481,549.86338 C165.682419,550.049247 165.518179,550.234282 165.344776,550.418548 C165.323741,550.440899 165.302896,550.462899 165.28192,550.484888 C165.102311,550.673184 164.912729,550.861038 164.713861,551.047772 C164.703233,551.057751 164.692934,551.067395 164.68261,551.077036 C164.605983,551.148601 164.52738,551.220548 164.447411,551.292311 C164.405131,551.330252 164.362321,551.368272 164.319129,551.406238 C164.283257,551.437767 164.247436,551.468988 164.211356,551.50017 C164.149851,551.553334 164.086857,551.607008 164.023104,551.660561 C159.411033,555.535329 150.824652,558.777778 141.130556,558.777778 C131.165441,558.777778 122.19486,555.558834 117.618518,551.596598 C117.603232,551.58309 117.587926,551.569791 117.572669,551.556483 C117.381207,551.389697 117.197501,551.221289 117.021866,551.051762 C116.995109,551.025795 116.968692,551.000096 116.94246,550.974372 C116.880484,550.913715 116.819418,550.852657 116.759407,550.791467 C116.7345,550.765975 116.709827,550.740614 116.685336,550.715232 C116.518402,550.542283 116.359902,550.368212 116.21011,550.19331 C116.195071,550.175722 116.179768,550.157741 116.164557,550.139751 C116.11056,550.075905 116.05807,550.01235 116.006739,549.948698 C115.955257,549.884846 115.904865,549.820812 115.855656,549.756689 C115.824511,549.716113 115.793774,549.675404 115.763517,549.634662 C115.741101,549.604474 115.719076,549.574448 115.697313,549.544405 C115.653686,549.48419 115.610839,549.423511 115.569066,549.36277 C115.551006,549.336503 115.533555,549.310835 115.516298,549.285156 C115.458922,549.199797 115.403371,549.113835 115.35,549.027778 L115.279,549.237 L115.214975,549.429091 C115.1703,549.561901 115.125968,549.693743 115.082007,549.824595 L115.067681,549.86724 C113.818506,553.586184 112.872222,556.50182 112.872222,558.138889 Z M141,481 C143.761424,481 146,481.447715 146,482 C146,482.552285 143.761424,483 141,483 C138.238576,483 136,482.552285 136,482 C136,481.447715 138.238576,481 141,481 Z" id="VLC-Player"></path></g></g></svg>