<svg xmlns="http://www.w3.org/2000/svg" xmlns:xlink="http://www.w3.org/1999/xlink" width="40px" height="40px" viewBox="645 2798 40 40"><title>xBox</title><g id="Page-1" stroke="none" stroke-width="1" fill="none" fill-rule="evenodd"><g id="VOD" fill="#FFFFFF" fill-rule="nonzero"><path d="M672.447616,2819.92602 C671.163484,2818.485 669.252795,2816.42063 666.729535,2813.91172 C666.177675,2813.36297 665.594639,2812.79094 664.982146,2812.19867 C664.982146,2812.19867 664.060243,2813.12047 662.860027,2814.33297 L662.860027,2814.33141 C661.323991,2815.88281 659.332511,2817.90672 658.227071,2819.08813 C656.258876,2821.18828 650.620101,2827.78391 650.302955,2831.48203 C650.302955,2831.48203 649.048357,2828.54875 651.801643,2821.78359 C653.600444,2817.36109 659.035524,2810.72039 661.305316,2808.55648 C661.305316,2808.55648 659.231406,2806.27453 656.628918,2804.69828 L656.613369,2804.69359 C656.613369,2804.69359 656.583835,2804.67031 656.537189,2804.64078 C655.285717,2803.89461 653.919153,2803.31945 652.603923,2803.24328 C651.260643,2803.33813 650.410233,2804.32055 650.410233,2804.32055 C647.053752,2807.89898 645,2812.70852 645,2818 C645,2829.04461 653.95486,2838 665.002305,2838 C670.864934,2838 676.139917,2835.47242 679.799635,2831.45406 C679.798072,2831.44789 679.378337,2828.81148 676.687167,2825.02938 C676.054438,2824.14336 673.742687,2821.37789 672.447616,2819.92602 M679.673683,2804.41227 C679.585079,2804.3143 679.488662,2804.22258 679.400058,2804.12156 C678.667786,2803.31789 677.767682,2803.12359 676.956104,2803.17641 C676.21766,2803.40805 672.805157,2804.63766 668.599829,2808.60781 C668.599829,2808.60781 673.333734,2813.21063 676.233209,2817.91609 C679.129558,2822.62148 680.861476,2826.31961 679.79651,2831.4525 C683.028679,2827.90055 685,2823.18109 685,2817.99844 C685,2812.75359 682.98047,2807.97977 679.673683,2804.41227 M653.909777,2801.39344 C653.889618,2801.40898 653.87407,2801.42609 653.855395,2801.44164 C653.968846,2801.32195 654.132146,2801.19289 654.239424,2801.12297 C657.370488,2799.08813 660.988171,2798 665.002305,2798 C668.756878,2798 672.273455,2799.03687 675.27552,2800.84008 C675.493201,2800.96906 676.087098,2801.37633 676.393383,2801.74633 L676.393383,2801.74789 C673.497034,2798.555 664.983709,2805.40555 664.983709,2805.40555 C662.039151,2803.13602 659.330948,2801.5893 657.314544,2801.03906 C655.629272,2800.57734 654.463278,2800.96289 653.909777,2801.39344" id="xBox"></path></g></g></svg>