<svg xmlns="http://www.w3.org/2000/svg" xmlns:xlink="http://www.w3.org/1999/xlink" width="100px" height="100px" viewBox="698 278 100 100"><title>XcIPTV</title><g id="Page-1" stroke="none" stroke-width="1" fill="none" fill-rule="evenodd"><g id="Light" fill="#FFFFFF"><path d="M750.913,344.357 L750.914034,377.916498 C749.949758,377.971912 748.978159,378 748,378 C747.125605,378 746.256453,377.977555 745.393088,377.93321 L745.393,347.807 L750.913,344.357 Z M741.913,349.982 L741.913268,377.633251 C738.097324,377.17014 734.413942,376.277167 730.912993,375.004205 L730.913738,355.311796 C732.199892,355.424523 733.529481,355.157692 734.725058,354.470354 L734.934776,354.344585 L741.913,349.982 Z M766.434,334.656 L766.43515,374.491717 C762.628544,376.002415 758.59239,377.059134 754.393504,377.595059 L754.393,342.182 L766.434,334.656 Z M727.434,294.523 L727.434276,302.013531 C725.981895,303.162934 725.030403,304.917544 724.960638,306.896521 L724.956522,307.130435 L724.956522,348.814161 C724.956522,350.036464 725.300018,351.234166 725.947837,352.270676 C726.356428,352.924421 726.861891,353.480777 727.43399,353.932768 L727.43398,373.588048 C710.077805,365.745911 698,348.283417 698,328 C698,315.124318 702.866831,303.385345 710.861251,294.522324 L727.434,294.523 Z M798,328 C798,347.753886 786.544583,364.832217 769.914437,372.954305 L769.914416,332.050705 C770.073112,331.852678 770.220502,331.645075 770.355666,331.428813 C771.865114,329.013695 771.600497,325.9926 769.913633,323.890075 L769.913,294.523 L785.138749,294.522324 C793.133169,303.385345 798,315.124318 798,328 Z M781.678914,291.043755 L766.434783,291.043478 L766.434,321.287 L754.393,313.762 L754.393504,278.404941 C764.838439,279.738079 774.276404,284.293845 781.678914,291.043755 Z M748,278 C748.978159,278 749.949758,278.028088 750.914034,278.083502 L750.913,311.587 L745.393,308.137 L745.393088,278.06679 C746.256453,278.022445 747.125605,278 748,278 Z M741.913268,278.366749 L741.913,305.962 L734.934776,301.600011 C733.898265,300.952192 732.700563,300.608696 731.478261,300.608696 C731.287955,300.608696 731.099553,300.616847 730.913384,300.632819 L730.913044,291.043478 L714.321086,291.043755 C721.796,284.227824 731.34638,279.64917 741.913268,278.366749 Z" id="XcIPTV"></path></g></g></svg>